<?xml version="1.0" standalone="no"?>
<!DOCTYPE svg PUBLIC "-//W3C//DTD SVG 20010904//EN"
 "http://www.w3.org/TR/2001/REC-SVG-20010904/DTD/svg10.dtd">
<svg version="1.0" xmlns="http://www.w3.org/2000/svg"
 width="1278.000000pt" height="1278.000000pt" viewBox="0 0 1278.000000 1278.000000"
 preserveAspectRatio="xMidYMid meet">
<metadata>
Created by potrace 1.14, written by Peter Selinger 2001-2017
</metadata>
<g transform="translate(0.000000,1278.000000) scale(0.100000,-0.100000)"
fill="#000000" stroke="none">
<path d="M6202 12093 c-14 -3 -20 -9 -15 -16 4 -7 -1 -6 -10 2 -14 11 -20 11
-34 0 -11 -10 -14 -10 -9 -1 12 19 -1 14 -25 -10 -12 -13 -18 -16 -13 -8 4 8
-11 0 -35 -17 -24 -18 -48 -30 -52 -27 -5 3 -6 -2 -3 -10 4 -11 -1 -14 -20
-12 -16 2 -30 -3 -36 -13 -4 -9 -12 -13 -16 -9 -4 4 -13 0 -21 -10 -8 -9 -12
-11 -8 -4 3 6 2 12 -2 12 -5 0 -15 -6 -22 -12 -11 -11 -13 -10 -8 4 5 13 1 16
-19 12 -13 -2 -24 0 -24 6 0 6 5 8 10 5 6 -3 10 -2 10 3 0 6 -7 13 -16 16 -8
3 -12 2 -9 -3 3 -5 1 -12 -5 -16 -5 -3 -10 -1 -10 4 0 12 -33 15 -44 4 -10
-11 -37 -12 -30 -2 3 5 10 6 16 3 7 -4 8 -2 4 4 -5 9 -13 9 -27 2 -14 -8 -19
-7 -20 2 0 7 -4 4 -9 -7 -7 -15 -9 -16 -9 -4 -1 9 -9 23 -18 30 -9 8 -14 9
-10 3 4 -7 -5 -11 -24 -12 -20 0 -27 3 -22 11 4 7 0 6 -10 -2 -14 -11 -17 -11
-17 0 0 10 -3 10 -12 1 -8 -8 -15 -9 -25 -1 -7 7 -13 8 -13 3 0 -5 -12 -10
-27 -11 -14 0 -30 -8 -35 -17 -5 -9 -13 -14 -18 -11 -5 3 -18 1 -29 -5 -14 -7
-22 -7 -26 0 -5 8 -11 8 -20 0 -10 -8 -14 -7 -18 2 -4 10 -7 10 -15 -1 -7 -9
-11 -10 -13 -2 -6 17 -94 21 -123 6 -17 -9 -27 -10 -35 -2 -7 7 -11 7 -11 1 0
-5 -9 -10 -20 -11 -13 -1 -18 2 -13 10 4 7 0 6 -10 -2 -14 -11 -17 -11 -17 0
0 10 -2 11 -8 2 -8 -13 -52 -14 -52 0 0 4 -5 5 -10 2 -6 -4 -8 -9 -6 -13 2 -4
-19 -5 -46 -3 -40 2 -49 0 -43 -10 6 -11 5 -12 -6 -1 -14 13 -53 17 -46 5 3
-5 -5 -8 -18 -8 -13 0 -21 3 -18 8 7 12 -12 8 -25 -5 -10 -10 -15 -10 -22 2
-9 13 -10 13 -10 0 0 -13 -2 -13 -9 -1 -8 12 -12 12 -25 2 -9 -7 -23 -11 -31
-7 -9 3 -14 2 -12 -2 3 -4 -5 -16 -16 -27 -11 -11 -16 -13 -12 -5 7 12 6 13
-7 3 -8 -7 -19 -9 -24 -5 -4 4 -3 -1 4 -10 12 -14 10 -16 -12 -14 -14 2 -25 0
-24 -3 2 -19 -4 -24 -12 -11 -6 10 -10 11 -10 3 0 -7 -9 -13 -19 -13 -11 0
-21 -6 -24 -12 -3 -10 -8 -10 -18 1 -12 12 -12 13 0 6 10 -6 12 -4 7 4 -6 9
-13 8 -29 -6 -14 -13 -18 -14 -13 -3 4 8 0 6 -8 -4 -9 -11 -16 -16 -16 -12 0
5 -8 2 -17 -5 -14 -12 -16 -12 -8 0 5 10 4 12 -3 7 -7 -4 -12 -14 -12 -21 0
-9 -6 -12 -17 -8 -12 5 -14 3 -8 -7 6 -10 4 -12 -9 -7 -10 4 -15 3 -11 -3 3
-6 -1 -10 -10 -10 -9 0 -14 -4 -11 -9 3 -5 -1 -11 -9 -14 -10 -4 -12 -1 -8 11
3 9 -3 6 -13 -8 -19 -25 -63 -43 -48 -19 4 8 3 10 -5 5 -9 -6 -9 -11 1 -24 9
-11 10 -14 1 -8 -7 4 -22 2 -34 -5 -17 -9 -20 -8 -13 3 4 7 -1 5 -12 -4 -16
-14 -23 -15 -34 -5 -10 10 -12 8 -6 -8 6 -16 5 -18 -5 -7 -15 14 -33 16 -25 3
4 -5 -4 -7 -16 -3 -14 3 -19 2 -14 -6 10 -16 -7 -15 -23 1 -8 6 -11 8 -9 2 3
-5 0 -16 -8 -23 -11 -10 -14 -10 -14 0 0 6 -7 3 -16 -8 -8 -10 -13 -14 -10 -8
3 7 -1 15 -10 18 -8 3 -12 2 -9 -4 3 -6 1 -10 -5 -10 -6 0 -8 -5 -4 -12 4 -6
3 -8 -3 -5 -14 9 -65 -17 -55 -28 4 -4 -3 -6 -15 -3 -12 3 -22 3 -21 -1 2 -22
-3 -41 -12 -36 -5 3 -18 -3 -29 -14 -11 -11 -23 -16 -27 -13 -4 4 -5 0 -2 -9
4 -9 1 -16 -8 -16 -7 0 -10 5 -7 11 4 6 -3 3 -15 -7 -11 -11 -26 -16 -31 -12
-6 3 -14 -1 -17 -10 -5 -12 -9 -13 -20 -4 -12 10 -13 8 -8 -7 7 -18 6 -18 -17
1 -22 19 -23 19 -9 1 14 -18 13 -19 -4 -12 -20 7 -20 7 0 -16 10 -12 12 -18 4
-12 -8 6 -25 14 -38 17 -19 4 -21 3 -11 -9 10 -12 9 -13 -5 -8 -11 4 -16 1
-16 -12 0 -16 -2 -17 -10 -4 -9 13 -10 13 -11 0 -1 -8 -1 -18 0 -22 2 -13 -17
-9 -22 5 -3 7 -6 4 -6 -6 -1 -10 -5 -15 -11 -12 -5 3 -10 2 -10 -4 0 -5 -9 -8
-21 -6 -16 3 -18 1 -10 -8 7 -9 5 -13 -10 -13 -10 0 -19 5 -19 11 0 5 -5 3
-10 -5 -5 -8 -10 -11 -10 -6 0 6 -7 1 -15 -10 -8 -10 -15 -14 -15 -9 0 6 -11
10 -24 10 -13 0 -22 -3 -19 -8 2 -4 -3 -10 -12 -13 -12 -5 -13 -9 -4 -20 10
-12 8 -13 -6 -8 -14 6 -16 4 -10 -6 6 -10 4 -12 -10 -6 -15 5 -16 4 -6 -8 10
-12 8 -16 -8 -21 -12 -3 -21 -11 -21 -17 0 -6 5 -7 13 -2 7 5 5 2 -5 -7 -9 -9
-14 -20 -10 -24 4 -5 -2 -5 -12 -1 -16 5 -17 4 -7 -8 11 -13 10 -15 -6 -11
-16 3 -19 -2 -18 -25 1 -20 -2 -27 -12 -23 -11 4 -11 8 -1 22 12 14 11 14 -4
2 -10 -7 -15 -17 -12 -22 5 -9 -10 -13 -30 -10 -5 1 -3 -6 5 -15 13 -16 12
-16 -11 -4 -22 12 -24 12 -12 -3 11 -13 10 -15 -8 -10 -16 4 -19 2 -14 -11 7
-19 -11 -22 -20 -3 -4 6 -4 2 -2 -10 2 -13 0 -23 -5 -23 -5 0 -9 5 -9 10 0 6
-4 10 -9 10 -5 0 -7 -10 -4 -22 3 -17 2 -19 -5 -9 -8 11 -11 10 -16 -7 -5 -14
-14 -19 -26 -17 -11 2 -23 -1 -26 -7 -5 -7 -2 -8 6 -3 9 5 11 4 6 -4 -4 -6
-15 -10 -24 -9 -11 2 -16 -3 -14 -12 2 -8 0 -12 -4 -8 -4 4 -13 0 -21 -10 -8
-9 -11 -11 -7 -3 4 9 2 12 -7 9 -8 -3 -13 -11 -11 -18 2 -7 -3 -10 -12 -7 -9
4 -18 1 -22 -5 -5 -7 -2 -8 7 -3 12 8 12 6 0 -9 -8 -9 -20 -15 -28 -12 -8 3
-12 2 -10 -2 3 -4 -7 -18 -21 -32 -13 -14 -21 -18 -16 -10 6 12 5 13 -8 3 -8
-7 -18 -10 -22 -6 -4 4 -4 -1 0 -11 5 -14 4 -17 -4 -12 -7 4 -12 1 -12 -8 0
-9 -5 -16 -11 -16 -5 0 -7 5 -3 12 5 7 3 8 -5 4 -7 -5 -10 -10 -7 -13 7 -7
-19 -33 -33 -33 -6 0 -7 -8 -4 -17 6 -16 5 -16 -10 -4 -15 12 -17 12 -11 -4 6
-14 4 -16 -6 -10 -9 5 -11 4 -6 -4 4 -7 17 -9 29 -6 21 6 21 6 2 -6 -11 -7
-24 -17 -28 -23 -6 -7 -7 -4 -3 7 3 9 1 17 -3 17 -13 0 -22 -30 -14 -43 4 -7
-1 -5 -11 3 -16 13 -20 12 -31 -3 -14 -19 -30 -24 -19 -5 5 7 3 8 -5 4 -7 -5
-10 -14 -7 -21 5 -14 -22 -13 -44 0 -6 3 -7 -1 -4 -9 4 -9 1 -16 -6 -16 -7 0
-10 -6 -7 -14 4 -10 0 -12 -15 -8 -19 4 -19 3 -7 -19 11 -22 11 -23 -4 -11 -9
8 -21 11 -27 7 -7 -5 -5 -12 7 -21 16 -13 16 -13 -8 -5 -23 8 -28 6 -38 -15
-6 -14 -9 -30 -6 -35 4 -5 1 -9 -4 -9 -6 0 -11 -5 -11 -11 0 -5 5 -7 12 -3 7
5 8 3 4 -5 -5 -7 -14 -10 -22 -7 -12 5 -12 2 -3 -15 6 -12 7 -19 1 -15 -5 3
-16 -2 -23 -11 -12 -14 -12 -16 1 -9 9 4 8 1 -2 -7 -10 -8 -18 -20 -18 -27 0
-9 -3 -10 -14 -1 -11 9 -13 6 -11 -14 2 -14 -1 -25 -7 -25 -6 0 -7 8 -3 18 4
12 1 11 -15 -6 -11 -12 -32 -29 -45 -38 -26 -17 -33 -34 -14 -34 5 0 7 5 4 10
-3 6 -1 10 4 10 14 0 14 -17 1 -25 -6 -4 -7 -12 -3 -18 3 -7 -4 -3 -18 8 l-24
20 15 -20 c8 -11 19 -23 24 -26 5 -4 -1 -13 -13 -20 -11 -8 -21 -17 -21 -22 0
-4 5 -5 12 -1 6 4 3 -4 -8 -18 -10 -14 -21 -22 -24 -17 -3 5 -35 0 -70 -11
-35 -10 -68 -17 -74 -14 -6 3 -3 -1 7 -9 21 -17 22 -31 2 -24 -8 4 -17 2 -20
-3 -4 -6 0 -10 7 -11 7 0 2 -5 -12 -11 -14 -6 -29 -10 -33 -9 -5 1 -6 -3 -2
-9 4 -7 12 -7 25 0 29 16 38 11 10 -5 -14 -8 -19 -14 -11 -15 8 0 12 -3 9 -6
-4 -3 -16 0 -28 6 -15 8 -20 8 -16 1 4 -6 -4 -15 -18 -21 -14 -5 -26 -12 -26
-14 0 -7 31 4 47 16 7 6 14 4 19 -3 4 -7 3 -9 -2 -6 -5 3 -21 -3 -34 -14 -21
-16 -23 -20 -10 -29 9 -6 10 -10 3 -10 -6 0 -15 5 -18 10 -5 8 -11 8 -19 1 -7
-6 -17 -7 -21 -3 -5 4 -5 1 -1 -6 6 -10 11 -10 22 -1 10 8 14 8 14 0 0 -6 -5
-11 -11 -11 -5 0 -7 -6 -3 -12 6 -10 4 -10 -7 0 -16 15 -33 16 -24 2 4 -6 3
-10 -2 -9 -4 1 -10 0 -13 -1 -18 -7 -39 -7 -35 0 3 4 -2 10 -10 13 -9 4 -12 1
-8 -9 3 -7 0 -14 -6 -14 -10 0 -15 14 -12 33 1 5 -3 6 -8 2 -6 -3 -7 -13 -4
-23 6 -15 5 -16 -13 -2 -15 11 -16 11 -7 0 13 -14 19 -39 6 -27 -3 4 -13 1
-22 -6 -14 -10 -14 -10 -3 5 10 12 10 18 1 24 -8 5 -9 3 -4 -6 6 -10 3 -12
-14 -7 -13 3 -20 3 -17 0 3 -4 0 -13 -7 -22 -11 -14 -10 -15 8 -1 18 14 19 14
7 -2 -14 -17 -42 -14 -42 5 0 6 -3 7 -6 4 -4 -4 -1 -13 6 -22 10 -13 9 -15 -9
-15 -13 0 -21 -6 -21 -16 0 -11 -6 -15 -19 -11 -15 3 -18 1 -14 -11 4 -9 2
-13 -4 -9 -14 9 -24 -18 -16 -40 4 -12 -1 -10 -16 7 -12 14 -19 18 -15 10 12
-23 15 -52 5 -46 -5 3 -7 -3 -4 -14 3 -12 0 -20 -6 -20 -7 0 -9 5 -5 12 4 7 3
8 -5 4 -8 -6 -9 -12 -2 -20 14 -17 1 -29 -16 -14 -11 8 -12 7 -8 -5 4 -8 1
-18 -6 -23 -8 -4 -10 -3 -5 4 4 7 2 12 -3 12 -6 0 -11 -10 -11 -22 0 -12 -3
-18 -7 -15 -3 4 -11 0 -17 -9 -6 -8 -21 -16 -32 -16 -21 -2 -30 -28 -10 -28 6
0 4 -5 -4 -10 -13 -9 -13 -10 0 -11 10 0 8 -3 -5 -8 -11 -5 -20 -14 -20 -22
-1 -8 -6 -13 -13 -12 -7 2 -12 -5 -12 -15 0 -10 -4 -22 -10 -28 -5 -5 -11 -22
-12 -37 -3 -30 -8 -33 -27 -14 -8 6 -5 -1 5 -18 17 -27 17 -29 1 -16 -16 13
-17 12 -8 -13 9 -23 8 -26 -12 -27 -12 0 -16 -3 -9 -6 10 -4 9 -9 -5 -19 -17
-13 -17 -14 2 -8 20 5 20 5 1 -10 -10 -8 -24 -12 -30 -9 -6 4 -5 -1 3 -10 12
-15 11 -17 -8 -17 -11 0 -21 -5 -21 -11 0 -5 4 -8 9 -4 5 3 13 0 17 -6 4 -7 3
-9 -4 -5 -6 3 -13 2 -17 -4 -4 -6 -12 -7 -18 -3 -20 12 -37 12 -34 0 1 -7 -4
-11 -12 -9 -8 2 -11 -3 -8 -13 4 -8 2 -15 -3 -15 -6 0 -10 -5 -10 -11 0 -5 6
-7 13 -3 7 4 9 3 4 -2 -5 -5 -14 -9 -20 -9 -7 0 -12 -5 -12 -12 0 -6 -4 -15
-9 -20 -5 -5 -6 -3 -2 5 10 17 -5 15 -29 -5 -16 -12 -16 -14 -3 -10 10 3 20 2
23 -4 4 -5 3 -9 -2 -8 -19 3 -33 -2 -33 -12 0 -5 4 -8 9 -4 5 3 12 2 15 -3 8
-13 -28 -11 -36 2 -4 6 -6 1 -5 -11 0 -12 4 -20 7 -18 3 2 6 -4 6 -14 0 -10
-6 -18 -13 -18 -7 0 -10 4 -7 8 2 4 0 10 -5 13 -10 7 -9 -20 2 -30 4 -4 2 -13
-4 -20 -6 -8 -9 -20 -5 -29 3 -8 2 -14 -2 -14 -4 1 -16 1 -27 0 -17 -1 -18 -3
-5 -11 13 -8 12 -10 -2 -10 -10 0 -18 -5 -18 -11 0 -5 -5 -7 -12 -3 -6 4 -8 3
-4 -4 8 -13 -22 -44 -35 -37 -5 4 -9 -3 -9 -14 0 -12 -5 -21 -11 -21 -5 0 -7
5 -3 12 4 7 3 8 -5 4 -6 -4 -9 -11 -7 -15 7 -11 -24 -52 -34 -46 -5 3 -12 0
-16 -6 -4 -8 -3 -9 4 -5 7 4 12 2 12 -3 0 -6 -7 -11 -15 -11 -9 0 -12 -6 -8
-17 5 -12 3 -14 -7 -8 -10 6 -12 4 -7 -8 4 -12 2 -14 -10 -10 -11 4 -14 2 -9
-5 4 -7 2 -12 -4 -12 -7 0 -10 -7 -6 -15 3 -8 2 -14 -2 -14 -18 3 -35 -2 -29
-8 8 -7 -39 -53 -54 -53 -6 0 -8 -4 -4 -9 7 -12 -29 -33 -41 -23 -5 4 -2 -2 6
-12 10 -13 10 -17 3 -12 -7 4 -13 3 -13 -3 0 -6 -6 -9 -12 -7 -7 1 -10 1 -5
-1 11 -7 8 -31 -5 -36 -10 -4 -10 -6 0 -6 6 -1 12 -6 12 -12 0 -5 -5 -7 -10
-4 -14 9 -13 -8 2 -23 9 -9 8 -13 -5 -17 -9 -4 -13 -13 -10 -21 3 -8 10 -11
17 -7 6 4 5 -1 -2 -10 -8 -9 -10 -22 -6 -28 5 -8 3 -9 -6 -4 -10 6 -12 4 -7
-9 5 -14 3 -17 -8 -13 -8 4 -17 1 -21 -5 -4 -7 -3 -8 4 -4 7 4 12 2 12 -4 0
-8 6 -8 23 0 20 10 20 10 5 -3 -10 -8 -14 -18 -10 -23 4 -4 -1 -2 -10 5 -12 9
-18 10 -18 2 0 -6 -5 -11 -11 -11 -5 0 -7 5 -3 12 4 7 3 8 -5 4 -9 -6 -9 -11
0 -22 10 -12 9 -13 -4 -8 -9 3 -24 1 -34 -6 -16 -9 -15 -10 7 -5 24 6 24 5 6
-9 -10 -9 -22 -13 -26 -11 -4 3 -16 -5 -26 -17 -11 -12 -13 -18 -6 -14 6 4 12
2 12 -4 0 -6 5 -8 12 -4 6 4 3 -5 -8 -19 -10 -15 -26 -26 -34 -26 -10 0 -11 2
-2 6 6 2 9 10 6 15 -5 7 -2 8 7 3 11 -6 12 -5 2 5 -16 17 -23 10 -27 -26 -2
-16 -5 -30 -6 -31 -1 -2 -3 -9 -4 -15 -1 -7 -7 -12 -14 -10 -17 3 -15 -3 5
-19 10 -8 14 -9 10 -2 -4 6 -3 14 3 18 6 4 8 11 5 16 -3 5 1 6 11 2 15 -5 15
-7 0 -15 -9 -5 -14 -13 -12 -17 3 -4 -5 -19 -17 -32 -21 -22 -34 -64 -16 -54
4 3 11 0 15 -6 4 -7 3 -9 -3 -6 -6 4 -17 -1 -24 -10 -12 -15 -12 -16 3 -10 10
3 20 1 24 -5 4 -7 3 -8 -4 -4 -7 4 -12 2 -12 -4 0 -6 -4 -8 -10 -5 -16 10 -11
-6 8 -23 9 -10 13 -14 8 -9 -19 14 -28 7 -15 -10 8 -9 9 -14 3 -10 -7 4 -14 0
-17 -8 -4 -10 -1 -12 11 -9 16 5 16 4 0 -9 -10 -8 -15 -17 -11 -21 4 -4 1 -11
-7 -16 -11 -7 -12 -10 -2 -10 7 0 10 -5 7 -10 -4 -6 -12 -8 -18 -4 -7 3 -5 -1
4 -8 15 -12 15 -15 1 -27 -13 -13 -13 -16 4 -28 16 -11 16 -13 1 -13 -10 0
-14 -5 -11 -15 4 -8 9 -13 13 -10 4 2 8 -2 8 -10 0 -13 -2 -13 -17 0 -14 13
-16 12 -17 -6 -1 -10 2 -17 8 -14 13 9 11 -9 -3 -24 -7 -8 -8 -11 -2 -8 6 3
11 0 11 -8 0 -8 -4 -12 -8 -10 -3 3 -9 -4 -12 -16 -4 -16 -3 -18 9 -8 9 7 14
8 14 1 0 -6 -4 -13 -9 -17 -5 -3 -12 -19 -16 -35 -4 -16 -10 -29 -13 -29 -20
3 -25 -2 -12 -11 13 -8 13 -10 -2 -10 -12 0 -15 -5 -11 -16 4 -10 -2 -17 -16
-21 -15 -4 -20 -11 -16 -22 3 -8 3 -12 -1 -8 -12 11 -43 -23 -37 -41 5 -11 3
-13 -7 -7 -10 6 -12 1 -7 -26 5 -23 4 -29 -3 -19 -7 12 -9 10 -7 -7 0 -12 5
-19 9 -17 4 3 8 -2 8 -11 0 -9 5 -13 11 -9 7 4 7 -1 -1 -16 -8 -15 -8 -20 -1
-16 7 5 11 -3 11 -19 0 -18 -4 -24 -12 -19 -9 5 -9 2 1 -9 7 -9 10 -17 7 -17
-4 0 -2 -9 4 -19 8 -16 6 -22 -7 -30 -10 -6 -12 -11 -5 -11 6 0 12 -7 12 -16
0 -8 4 -12 10 -9 6 3 7 -1 4 -9 -3 -9 -11 -13 -18 -10 -6 3 -3 -1 6 -9 14 -11
15 -16 5 -27 -10 -10 -9 -11 3 -5 12 6 13 5 3 -6 -7 -7 -13 -21 -13 -32 0 -10
-5 -15 -10 -12 -6 3 -10 -3 -10 -14 0 -11 -5 -23 -11 -27 -8 -4 -7 -9 2 -15 8
-5 10 -9 4 -9 -5 0 -10 -16 -10 -35 0 -19 5 -35 10 -35 6 0 3 -5 -5 -10 -12
-8 -12 -10 -1 -10 9 0 10 -4 4 -12 -6 -7 -9 -23 -8 -35 1 -12 -2 -20 -6 -17
-5 3 -11 -5 -13 -18 -12 -58 -13 -78 -2 -79 6 0 2 -4 -9 -9 -17 -7 -17 -9 -2
-9 19 -1 24 -21 5 -21 -6 0 -4 -6 6 -13 17 -12 16 -14 -9 -31 -26 -17 -26 -18
-8 -38 l18 -21 -30 19 c-17 11 -26 14 -21 5 5 -8 3 -17 -5 -23 -10 -7 -7 -8
11 -4 14 3 19 3 12 0 -6 -3 -10 -9 -7 -14 3 -5 -2 -15 -10 -23 -11 -12 -12
-17 -2 -20 9 -4 9 -8 -2 -15 -12 -9 -12 -13 -2 -26 11 -13 11 -16 0 -16 -11 0
-11 -2 1 -10 13 -9 13 -11 0 -20 -8 -5 -10 -10 -4 -10 15 0 23 -41 13 -68 -5
-13 -4 -24 3 -28 7 -5 8 -2 3 6 -5 9 -4 11 4 6 9 -6 9 -11 0 -22 -14 -17 -4
-48 13 -38 7 4 5 -2 -5 -14 -12 -13 -16 -28 -12 -40 3 -11 1 -23 -4 -27 -6 -3
-8 0 -5 8 3 8 1 17 -3 20 -5 3 -10 -8 -11 -24 -2 -22 1 -28 10 -23 7 4 10 3 5
-1 -4 -5 -17 -10 -28 -12 -17 -3 -19 1 -14 19 5 20 5 21 -5 5 -13 -21 5 -51
24 -40 6 3 3 -3 -7 -14 -9 -11 -14 -23 -10 -28 5 -4 2 -5 -5 -1 -7 4 -10 11
-8 15 3 4 0 8 -7 8 -7 0 -13 -7 -13 -16 -1 -9 -4 -31 -8 -49 -5 -25 -3 -32 5
-26 8 5 9 3 4 -5 -10 -18 14 -61 31 -54 10 4 12 0 7 -13 -4 -12 -3 -15 5 -10
7 4 12 2 12 -3 0 -6 8 -11 18 -11 14 0 15 -2 2 -10 -12 -7 -12 -10 -1 -10 7 0
11 -6 8 -15 -4 -8 -2 -17 3 -20 7 -5 7 -80 0 -80 -1 0 -3 -8 -5 -18 -2 -10 1
-14 7 -11 7 4 8 2 4 -4 -3 -6 2 -15 11 -21 10 -6 13 -11 8 -11 -6 0 -16 5 -23
12 -9 9 -15 9 -24 -1 -10 -11 -10 -13 0 -7 14 8 17 -10 3 -19 -6 -3 -9 -14 -8
-25 1 -10 5 -16 9 -14 8 5 12 -10 9 -35 -2 -7 1 -11 6 -8 5 3 9 -3 9 -13 0
-14 -3 -16 -13 -8 -10 8 -12 7 -7 -6 3 -9 9 -16 13 -16 4 0 8 -12 9 -26 1 -15
6 -32 12 -39 6 -7 6 -15 -2 -23 -9 -9 -6 -10 12 -7 18 3 21 2 12 -7 -14 -14
-16 -32 -3 -23 5 3 12 1 15 -4 4 -5 1 -13 -5 -17 -8 -5 -9 -3 -4 7 7 12 5 12
-6 1 -11 -11 -12 -14 -1 -21 8 -5 12 -11 10 -15 -5 -11 36 -66 51 -66 8 0 11
-7 8 -20 -3 -11 -1 -20 3 -20 5 0 7 -8 5 -17 -2 -10 -4 -22 -4 -26 -1 -5 -5
-6 -10 -2 -5 3 -13 1 -16 -5 -4 -6 -1 -9 6 -8 6 2 14 -3 16 -9 3 -7 -1 -13 -7
-13 -7 0 -4 -7 5 -17 16 -16 16 -17 -1 -30 -16 -12 -17 -13 -1 -13 15 0 16 -3
6 -22 -11 -21 -11 -22 4 -9 15 12 17 10 18 -15 1 -16 1 -32 0 -36 0 -4 5 -5
12 -2 12 4 16 -8 20 -57 1 -11 7 -15 17 -11 13 5 13 3 1 -11 -7 -9 -10 -17 -5
-17 4 0 0 -6 -10 -13 -13 -10 -15 -18 -7 -37 5 -14 10 -23 11 -20 7 25 7 39
-1 34 -5 -3 -9 0 -9 5 0 6 7 11 15 11 9 0 13 -7 11 -17 -6 -32 -18 -53 -27
-47 -5 3 -9 0 -9 -5 0 -6 4 -11 10 -11 5 0 7 -8 4 -17 -5 -15 -4 -15 4 -3 6 8
8 18 6 22 -3 4 -1 8 5 8 5 0 10 -8 10 -17 1 -44 5 -51 20 -45 9 3 13 2 9 -3
-4 -4 3 -16 15 -26 19 -16 20 -20 7 -29 -13 -10 -13 -11 0 -9 8 1 22 1 30 0
13 -1 13 -2 0 -11 -11 -7 -11 -10 -2 -10 7 0 10 -5 7 -10 -4 -6 -1 -9 7 -8 7
2 12 -3 10 -9 -1 -7 3 -13 9 -13 7 0 9 -9 6 -21 -5 -17 -3 -18 11 -7 9 7 14 9
10 4 -4 -4 -2 -19 3 -33 8 -21 7 -24 -6 -19 -9 3 -13 2 -10 -4 3 -6 14 -10 23
-11 12 0 11 -3 -5 -9 -13 -5 -23 -12 -23 -15 0 -4 4 -4 9 -1 4 3 17 -2 27 -10
10 -9 12 -12 4 -8 -11 5 -10 1 3 -13 14 -16 15 -22 5 -27 -9 -4 -9 -5 2 -5 8
1 22 1 30 0 13 -1 13 -2 0 -11 -12 -8 -11 -10 7 -10 14 0 24 -9 32 -30 8 -25
7 -30 -5 -30 -8 0 -12 -5 -9 -10 4 -6 11 -7 17 -4 7 5 8 2 4 -5 -5 -7 -14 -10
-20 -8 -16 6 -8 -44 8 -55 7 -5 3 -8 -9 -8 -16 0 -17 -2 -5 -9 8 -6 18 -7 22
-5 4 3 5 -2 2 -11 -4 -9 1 -22 12 -31 11 -9 12 -13 4 -9 -8 4 -6 -1 4 -9 15
-12 16 -16 5 -16 -8 -1 -3 -7 11 -15 14 -8 19 -14 13 -15 -7 0 -13 -5 -13 -11
0 -6 7 -9 14 -6 10 4 13 1 9 -9 -3 -8 2 -23 11 -33 9 -10 13 -21 9 -26 -5 -4
-2 -5 5 -1 7 4 12 1 12 -8 0 -9 6 -16 14 -16 8 0 17 -8 21 -17 5 -15 4 -16 -6
-5 -7 6 -17 12 -23 12 -15 0 27 -29 42 -30 7 0 11 4 8 8 -3 5 1 9 8 9 7 0 13
-6 13 -13 0 -7 -4 -11 -8 -8 -4 2 -10 0 -14 -6 -3 -6 4 -10 17 -11 53 -2 85
-19 72 -40 -2 -4 0 -11 6 -14 8 -5 7 -12 -2 -23 -12 -15 -11 -16 5 -3 14 11
21 11 29 3 7 -7 8 -12 3 -12 -6 0 -3 -5 5 -10 13 -8 13 -13 2 -31 -8 -11 -9
-18 -3 -15 5 4 12 2 16 -4 3 -5 1 -10 -5 -10 -7 0 -9 -8 -5 -21 5 -15 4 -19
-4 -15 -15 10 -14 -2 1 -18 22 -21 51 -28 60 -14 7 10 8 9 5 -2 -2 -9 -14 -14
-26 -12 -13 1 -30 -3 -39 -8 -14 -9 -12 -10 7 -4 14 4 21 2 18 -3 -4 -6 0 -19
8 -29 8 -10 15 -14 15 -8 0 5 -6 16 -13 23 -10 11 -9 13 6 7 10 -3 21 -6 23
-6 10 0 3 -29 -10 -39 -24 -20 -16 -50 11 -45 13 3 23 1 22 -3 -1 -5 -1 -17 0
-28 1 -17 3 -18 12 -5 9 12 10 11 6 -7 -3 -15 -1 -20 9 -16 8 3 14 -1 14 -11
0 -9 5 -16 10 -16 12 0 9 -22 -5 -32 -9 -7 17 -13 38 -9 5 1 6 -3 2 -9 -3 -6
-11 -8 -16 -5 -5 4 -9 -3 -9 -15 0 -12 4 -18 10 -15 6 3 7 -1 4 -9 -3 -9 -10
-14 -14 -11 -5 3 -12 0 -16 -6 -4 -7 -3 -9 4 -5 6 3 13 2 17 -4 3 -5 1 -10 -5
-10 -7 0 -8 -6 0 -19 7 -14 6 -21 -3 -24 -7 -3 -4 -6 6 -6 10 -1 15 -6 12 -11
-4 -6 -11 -8 -16 -5 -5 3 -6 -1 -3 -9 3 -9 10 -13 15 -10 5 3 9 -2 9 -10 0 -9
7 -16 15 -16 8 0 15 -5 15 -11 0 -7 10 -9 24 -7 17 4 23 1 19 -9 -3 -7 2 -13
11 -13 9 0 16 -5 16 -11 0 -6 9 -9 19 -6 12 3 22 -1 26 -11 5 -14 7 -14 15 -2
8 12 10 12 10 1 0 -8 7 -11 18 -9 10 3 27 -1 37 -8 15 -11 21 -11 34 -1 12 10
14 9 8 -5 -3 -10 1 -22 11 -30 13 -11 15 -11 7 2 -6 12 -5 12 4 4 10 -9 10
-17 1 -34 -9 -17 -9 -25 0 -34 8 -8 9 -6 4 9 -4 11 -4 17 0 14 11 -10 16 -50
5 -44 -5 4 -9 1 -9 -4 0 -6 5 -11 10 -11 6 0 10 -5 10 -11 0 -5 -4 -8 -8 -5
-5 3 -9 -1 -9 -9 0 -8 3 -13 5 -10 3 3 10 0 17 -5 8 -7 12 -5 12 5 0 8 -4 12
-9 9 -4 -3 -5 2 -2 11 9 21 17 12 19 -22 1 -18 7 -27 16 -25 11 3 12 1 2 -9
-10 -10 -16 -10 -25 -1 -7 7 -17 12 -23 12 -5 0 1 -9 15 -20 23 -18 26 -18 45
-2 19 16 19 16 4 -3 -9 -11 -14 -27 -11 -35 3 -11 -2 -9 -19 5 l-24 20 18 -22
c20 -24 57 -37 57 -20 0 6 3 7 6 4 4 -4 1 -13 -6 -22 -7 -9 -10 -18 -6 -22 3
-3 6 -1 6 5 0 6 9 10 19 9 12 -1 17 -6 13 -16 -4 -10 -1 -13 11 -8 15 6 16 4
6 -14 -6 -12 -7 -19 -2 -16 10 6 43 -27 43 -43 0 -9 14 -14 32 -11 4 0 5 -6 2
-14 -4 -9 0 -15 8 -15 7 0 19 -9 26 -21 10 -16 16 -18 27 -9 12 10 13 8 10 -8
-3 -16 1 -20 16 -17 12 2 19 -2 19 -11 0 -8 6 -13 13 -12 6 2 11 -3 9 -10 -1
-7 5 -12 15 -10 10 2 17 -2 15 -9 -2 -12 11 -17 31 -14 5 1 6 -3 3 -7 -3 -5 5
-21 18 -35 13 -14 21 -29 17 -34 -3 -4 3 -1 13 7 14 11 18 11 12 2 -5 -8 -1
-18 10 -26 10 -8 15 -20 11 -29 -3 -9 -3 -16 1 -14 4 1 8 -2 9 -6 1 -5 11 -17
22 -26 12 -10 21 -25 21 -32 1 -24 25 -50 37 -38 8 8 13 7 18 -2 5 -8 4 -10
-3 -5 -7 4 -12 2 -12 -3 0 -10 14 -15 33 -12 4 0 7 -3 7 -9 0 -5 -4 -10 -10
-10 -5 0 -10 -9 -10 -19 0 -11 -6 -22 -12 -24 -10 -4 -10 -6 0 -6 6 -1 12 -9
12 -18 0 -15 2 -16 10 -3 14 21 12 33 -2 24 -8 -5 -8 -1 2 12 22 29 24 30 17
12 -4 -10 -2 -18 3 -18 5 0 2 -12 -6 -27 -12 -25 -12 -28 1 -31 18 -4 20 -32
3 -32 -9 0 -8 -3 2 -9 8 -6 18 -7 24 -4 5 3 6 1 2 -5 -3 -6 3 -17 15 -26 13
-9 18 -19 14 -27 -5 -8 -4 -10 4 -5 6 4 18 2 26 -4 12 -10 13 -8 10 10 -2 13
-1 19 3 16 7 -7 8 -11 11 -37 0 -5 6 -7 11 -4 6 3 10 1 10 -4 0 -6 3 -10 8
-10 26 4 44 -3 39 -16 -8 -19 5 -26 23 -13 12 8 11 8 -5 3 -16 -5 -18 -4 -7 6
8 9 15 10 23 2 7 -7 5 -15 -6 -27 -12 -12 -13 -16 -3 -16 10 0 9 -3 -2 -10
-12 -7 -10 -9 7 -7 16 1 19 5 12 13 -11 13 7 32 18 20 4 -3 0 -6 -7 -6 -10 0
-11 -3 -3 -11 6 -6 9 -18 6 -27 -4 -10 -2 -13 5 -8 6 3 14 1 18 -5 4 -8 9 -7
16 2 7 10 8 8 5 -8 -4 -16 -1 -20 11 -16 11 5 13 3 7 -7 -5 -8 -4 -11 3 -7 12
8 44 -2 38 -12 -8 -12 29 -33 61 -34 7 0 10 -4 8 -8 -6 -9 51 -29 60 -21 3 4
3 -2 -1 -13 -6 -15 -4 -17 11 -12 15 6 16 5 5 -8 -10 -12 -10 -15 4 -15 10 0
14 -4 11 -10 -3 -5 -1 -10 4 -10 6 0 11 -7 11 -16 0 -10 6 -14 14 -11 10 4 12
0 9 -14 -4 -12 0 -19 10 -19 8 0 21 -8 28 -17 13 -17 13 -17 -6 -3 -19 14 -19
14 -6 -3 8 -10 20 -16 27 -13 9 3 11 0 7 -11 -4 -11 -2 -14 5 -9 7 4 12 1 12
-8 0 -9 7 -16 15 -16 8 0 15 -4 15 -10 0 -5 7 -10 16 -10 8 0 12 -5 9 -10 -3
-6 1 -13 9 -16 9 -3 16 -12 16 -20 0 -8 5 -14 11 -14 5 0 7 -5 3 -12 -4 -6 -3
-8 4 -4 6 3 14 0 19 -7 10 -18 71 -27 77 -13 2 6 5 3 5 -6 1 -9 6 -20 13 -24
6 -4 9 -3 6 2 -3 5 1 16 10 23 14 13 15 12 10 -7 -4 -12 -3 -20 2 -17 4 3 13
-2 20 -10 6 -7 18 -11 26 -8 13 5 17 -10 13 -44 0 -4 9 -10 20 -15 12 -4 18
-13 15 -21 -3 -8 2 -20 10 -27 9 -7 13 -16 10 -21 -3 -5 0 -9 6 -9 6 0 8 -5 5
-10 -3 -6 -1 -10 4 -10 6 0 11 -7 11 -15 0 -14 12 -20 33 -16 5 1 6 -3 3 -8
-4 -5 -2 -12 3 -15 5 -4 13 -1 16 4 5 7 12 5 22 -7 10 -13 16 -15 19 -5 3 6
11 9 17 5 6 -3 25 -7 42 -8 29 -1 82 -35 56 -35 -6 0 -11 -5 -11 -11 0 -6 9
-8 23 -3 12 3 19 3 15 -1 -5 -5 1 -15 13 -23 14 -10 17 -17 10 -26 -8 -9 -7
-13 4 -13 8 0 13 3 10 5 -3 3 1 12 8 20 8 11 8 14 0 9 -6 -4 -14 -3 -17 2 -11
16 11 22 24 6 7 -8 17 -12 23 -8 6 3 7 1 3 -5 -4 -7 -1 -12 8 -12 9 0 16 -5
16 -11 0 -7 -11 -4 -27 7 -20 13 -25 13 -16 2 7 -8 10 -18 6 -22 -4 -4 0 -4 9
-1 10 4 21 -2 31 -15 11 -16 16 -18 21 -8 5 10 7 10 12 0 3 -6 9 -10 14 -7 5
3 7 -3 5 -12 -2 -10 -4 -20 -4 -23 -1 -3 -6 2 -11 10 -6 9 -10 10 -10 3 0 -6
5 -15 10 -18 6 -4 7 -11 4 -17 -4 -7 -2 -8 5 -4 6 4 9 11 6 16 -3 4 2 13 9 19
12 10 14 7 12 -14 -3 -20 -1 -23 10 -14 10 8 14 8 14 0 0 -6 9 -11 20 -11 12
0 20 -7 20 -17 0 -15 2 -16 10 -3 7 11 10 11 10 2 0 -7 13 -18 30 -23 17 -6
27 -16 23 -22 -4 -6 1 -8 15 -5 16 5 20 2 17 -13 -3 -17 -1 -18 18 -8 12 7 19
8 14 4 -8 -9 63 -46 75 -39 3 2 10 0 13 -6 5 -8 11 -8 20 0 9 8 15 8 20 0 3
-5 11 -10 16 -10 6 0 8 3 6 8 -3 4 8 7 24 7 16 1 29 -3 29 -8 0 -4 -7 -7 -16
-5 -10 2 -19 -4 -21 -12 -4 -12 -3 -12 5 -1 8 11 14 9 31 -8 11 -11 21 -16 21
-11 0 15 19 12 37 -6 9 -8 22 -13 29 -10 8 3 14 1 14 -5 0 -6 4 -8 9 -4 5 3
12 1 16 -4 3 -6 12 -8 20 -5 8 4 12 10 9 15 -3 5 2 6 11 3 12 -5 14 -2 8 12
-6 16 -5 17 9 4 9 -8 13 -19 10 -25 -3 -5 1 -4 10 3 13 10 17 10 21 0 4 -10 6
-10 6 0 1 6 6 12 12 12 5 0 7 -4 4 -10 -3 -5 1 -10 9 -10 9 0 16 -4 16 -10 0
-5 7 -10 15 -10 8 0 15 -4 15 -10 0 -5 7 -10 15 -10 7 0 19 -8 24 -17 6 -10
11 -13 11 -7 0 7 11 9 25 6 15 -2 22 -9 18 -16 -3 -6 0 -6 8 2 17 16 52 16 44
0 -4 -7 0 -5 8 4 10 13 17 14 25 6 8 -8 15 -8 27 2 8 7 15 9 15 4 0 -5 5 -2
11 6 9 12 10 12 5 -3 -4 -12 -2 -17 6 -14 7 2 19 -3 26 -12 9 -12 12 -12 10
-2 -2 7 4 16 12 18 9 3 11 1 5 -4 -5 -4 -11 -15 -11 -24 -1 -12 6 -15 27 -13
32 4 37 -3 13 -20 -13 -10 -13 -12 5 -12 11 0 17 4 15 8 -3 4 2 8 11 8 20 0
46 -25 37 -35 -4 -5 -1 -5 6 0 10 5 11 10 3 18 -6 6 -11 15 -11 21 0 5 6 1 14
-9 13 -18 51 -32 40 -14 -3 5 -10 6 -16 3 -7 -4 -8 -2 -4 5 4 6 12 9 17 5 5
-3 17 0 26 8 10 8 14 8 10 1 -4 -6 -2 -15 4 -19 6 -3 15 -1 19 6 6 9 10 7 15
-9 4 -12 15 -21 26 -21 11 0 18 -4 15 -8 -3 -5 1 -9 9 -9 8 0 12 4 9 9 -3 4 0
8 5 8 6 0 11 -6 11 -12 0 -9 3 -8 9 2 6 8 7 18 4 24 -3 5 -1 6 5 2 6 -4 9 -12
6 -20 -3 -7 2 -13 10 -13 8 0 13 4 10 9 -5 7 3 10 22 7 4 0 11 5 16 13 7 10 8
9 4 -4 -3 -10 -1 -18 5 -18 6 0 7 -6 3 -12 -6 -10 -4 -10 7 -2 8 6 22 10 32 8
14 -2 17 2 12 14 -5 13 -1 12 16 -4 20 -17 22 -17 16 -1 -4 9 -2 17 2 17 5 0
12 -7 15 -15 5 -14 8 -14 30 0 18 12 26 13 32 4 5 -8 3 -10 -7 -4 -8 5 -11 4
-6 -1 5 -5 30 -9 55 -9 36 0 46 -4 44 -15 -1 -8 7 -4 19 10 11 14 18 19 14 13
-11 -21 4 -34 25 -23 16 8 18 7 14 -4 -3 -8 0 -17 7 -22 8 -4 10 -3 5 4 -9 15
-1 15 24 0 17 -11 22 -10 30 2 6 10 10 11 10 3 0 -7 5 -13 11 -13 5 0 7 5 3
12 -4 7 -3 8 5 4 6 -4 9 -11 6 -16 -3 -5 0 -12 7 -16 7 -4 10 -4 6 1 -4 4 -3
14 3 21 9 11 14 11 26 -2 13 -13 17 -13 24 -2 7 11 9 11 9 -1 0 -7 6 -11 15
-7 8 3 15 1 15 -3 0 -5 15 -8 34 -7 20 1 32 -3 30 -9 -3 -6 5 -11 16 -11 11 0
20 5 20 11 0 5 5 3 10 -5 7 -11 10 -11 10 -2 0 7 5 10 10 7 6 -4 18 -1 27 7
10 8 14 8 10 1 -4 -6 -3 -14 3 -18 5 -3 10 -2 10 3 0 6 7 13 16 16 8 3 13 2
10 -3 -3 -5 1 -11 9 -15 8 -3 17 0 21 6 5 7 2 8 -5 3 -10 -6 -11 -3 -2 14 7
11 14 21 17 21 3 0 3 -4 0 -9 -8 -12 4 -41 16 -41 5 0 7 4 4 8 -2 4 4 8 14 8
10 0 17 -3 14 -7 -7 -12 23 -18 35 -6 6 6 11 7 11 3 0 -5 8 -2 17 5 11 10 14
10 9 2 -4 -8 -1 -13 9 -13 9 0 14 -4 11 -8 -6 -11 25 -9 42 2 7 4 20 2 29 -6
9 -7 14 -8 11 -3 -3 6 4 19 15 30 11 11 17 14 13 7 -4 -7 -1 -12 9 -12 9 0 14
4 11 8 -3 5 5 8 17 7 12 -1 28 3 36 9 11 8 13 8 7 -1 -5 -10 -1 -11 16 -4 25
9 32 11 51 11 8 0 7 4 -3 10 -8 5 -10 10 -4 10 6 0 17 -7 24 -15 8 -10 18 -12
29 -6 9 5 22 6 30 3 10 -3 11 0 5 9 -6 11 -5 12 8 2 8 -7 18 -10 22 -6 4 4 11
1 16 -7 6 -9 10 -10 10 -3 0 7 10 10 26 7 16 -3 23 -1 19 6 -4 7 2 7 19 0 17
-6 27 -6 32 2 5 7 3 8 -6 3 -9 -6 -11 -4 -5 5 6 10 11 9 22 -5 7 -11 13 -14
13 -7 0 6 7 9 17 5 9 -4 14 -2 11 3 -4 5 4 9 17 9 13 0 21 -4 18 -9 -3 -4 4
-5 16 -1 12 4 28 2 36 -5 10 -9 16 -7 24 7 6 10 11 14 11 8 0 -5 20 -10 45
-10 25 0 45 5 45 10 0 6 5 3 10 -5 8 -12 10 -12 10 -1 0 8 3 12 6 8 4 -3 18 0
33 7 14 7 33 12 41 11 8 0 21 6 28 15 8 8 11 10 8 4 -3 -6 1 -11 9 -11 8 0 12
4 9 8 -2 4 0 10 6 14 5 3 10 2 10 -4 0 -6 7 -8 15 -5 8 4 12 11 8 17 -4 6 -1
7 8 1 8 -4 27 -7 44 -6 23 2 27 1 15 -7 -20 -14 -7 -14 25 1 19 9 28 9 37 0
16 -16 51 -16 42 1 -6 9 -4 9 7 1 16 -13 107 -15 115 -3 3 5 13 5 23 -1 10 -5
22 -6 26 -2 3 4 22 8 41 8 18 1 41 8 51 15 9 8 14 9 10 3 -4 -7 0 -15 9 -18 8
-3 13 -2 10 3 -3 5 1 12 10 15 8 3 12 2 9 -4 -3 -6 1 -7 9 -4 9 3 14 10 11 14
-3 5 0 12 6 16 8 4 9 3 5 -5 -5 -8 2 -11 23 -9 17 1 31 7 32 13 0 5 4 1 9 -10
7 -16 9 -16 9 -4 1 11 13 19 35 23 19 4 36 12 38 18 5 15 48 18 48 4 0 -6 5
-3 11 7 8 13 14 15 29 7 15 -8 18 -7 14 3 -6 17 25 19 45 3 12 -9 13 -8 6 3
-6 11 -4 13 8 8 10 -3 17 -3 17 1 0 13 102 5 111 -9 5 -8 9 -9 9 -3 0 6 12 11
28 12 33 2 69 9 82 17 6 3 10 1 10 -6 0 -8 4 -8 15 1 8 7 12 17 8 24 -3 6 -2
7 3 3 9 -9 10 -11 13 -44 2 -14 4 -13 12 6 8 20 11 22 26 10 12 -10 14 -10 9
-1 -4 6 -2 12 3 12 6 0 11 -6 11 -12 0 -9 4 -8 10 2 5 8 10 11 10 6 0 -4 12 0
28 9 l27 18 -19 -22 c-11 -11 -16 -24 -13 -28 4 -3 7 -1 7 6 0 7 7 11 15 8 8
-4 17 -1 21 5 5 7 2 8 -7 3 -12 -8 -12 -6 0 8 15 18 26 23 16 7 -4 -6 8 -10
27 -10 19 0 39 -5 45 -11 8 -8 13 -7 18 2 5 7 4 10 -2 6 -6 -4 -16 0 -23 8
-10 12 -7 13 15 9 19 -3 24 -1 19 7 -4 8 -3 9 5 5 6 -4 9 -12 6 -17 -4 -5 -1
-9 4 -9 6 0 11 7 11 15 0 8 5 15 11 15 5 0 7 -4 4 -10 -3 -5 -1 -10 4 -10 6 0
11 5 11 10 0 7 8 6 23 -1 21 -12 21 -11 7 6 -8 10 -10 16 -3 12 16 -10 44 3
36 17 -4 6 1 5 10 -3 11 -9 17 -10 17 -2 0 6 7 11 15 11 7 0 18 7 23 16 5 9
13 16 18 16 5 0 8 4 7 9 -2 4 5 5 14 2 11 -4 14 -3 9 5 -5 8 -2 10 8 6 9 -4
16 -1 16 6 0 10 3 10 14 1 11 -10 17 -8 25 6 7 12 10 14 11 4 0 -10 5 -9 18 5
9 11 29 25 44 33 15 8 25 17 23 22 -3 4 6 6 19 5 18 -2 23 1 19 11 -4 10 0 13
13 11 11 -2 18 2 16 10 -2 10 2 10 17 2 25 -13 31 -13 31 1 0 5 -4 8 -8 5 -5
-3 -9 1 -9 9 0 10 4 12 12 5 7 -6 16 -5 25 3 10 9 11 9 6 0 -4 -7 -2 -13 3
-13 6 0 11 4 11 9 0 11 19 9 38 -3 8 -5 18 -4 25 3 6 6 21 11 33 11 12 0 25 6
27 13 4 9 6 9 6 -1 1 -8 6 -10 14 -5 6 4 21 8 32 8 12 1 19 7 17 15 -3 11 0
11 12 0 13 -10 16 -10 16 0 0 8 2 11 5 8 6 -6 34 15 81 59 13 12 24 19 24 15
0 -4 5 0 10 8 5 8 14 16 20 16 5 1 15 2 21 3 5 0 8 5 4 10 -3 5 -1 12 4 15 5
4 13 1 16 -4 5 -7 12 -5 22 7 8 10 12 13 9 7 -3 -7 2 -18 12 -25 15 -12 16
-12 5 1 -7 9 -8 21 -4 29 6 9 10 7 14 -9 3 -12 10 -19 16 -16 6 4 8 14 5 24
-5 15 -4 15 8 2 18 -21 48 -22 41 -1 -4 9 -3 13 2 9 4 -4 16 3 27 15 11 12 17
17 14 10 -4 -6 -2 -14 3 -17 5 -3 12 1 15 10 3 8 10 13 15 10 12 -8 42 4 36
14 -7 11 24 22 37 13 6 -3 8 -1 5 4 -6 10 27 27 46 24 4 -1 7 7 8 16 0 12 2
14 6 5 4 -10 9 -8 20 8 8 11 20 19 26 17 7 -2 18 3 25 12 11 13 12 13 6 1 -5
-10 1 -8 16 5 13 11 20 14 16 8 -4 -8 -1 -13 9 -13 10 0 13 5 9 12 -5 7 -2 9
9 5 9 -3 18 -1 21 6 3 9 7 8 14 -2 7 -9 11 -10 13 -2 3 7 11 13 19 15 34 6 66
20 77 35 12 14 12 14 6 -4 -6 -17 -4 -18 9 -8 8 7 18 10 21 6 4 -3 7 -1 7 6 0
7 5 9 12 5 6 -4 8 -3 4 4 -7 12 9 25 38 29 11 2 25 8 32 14 7 6 18 8 24 4 10
-6 45 21 45 36 0 4 3 10 8 13 4 3 5 3 2 -1 -3 -3 1 -13 7 -22 7 -9 8 -13 4 -9
-11 9 -36 -9 -36 -25 0 -6 7 -2 15 9 8 10 15 15 15 10 0 -5 7 -3 15 4 8 6 19
9 26 5 8 -6 8 -2 0 13 -10 18 -9 20 9 17 15 -3 20 1 18 13 -2 9 2 17 9 17 6 0
22 11 36 25 38 38 54 49 61 43 3 -4 6 -2 6 3 0 6 19 21 42 34 22 12 38 17 33
11 -5 -9 -1 -9 14 1 12 7 21 17 21 22 0 4 9 6 21 3 17 -4 18 -3 8 9 -10 12 -9
13 6 8 13 -5 16 -4 10 5 -6 11 -3 11 16 0 21 -11 22 -10 12 3 -17 19 -4 31 15
15 10 -8 13 -8 9 -1 -4 7 0 15 9 18 10 4 13 2 9 -7 -4 -6 2 -1 13 12 13 16 21
20 26 12 6 -9 12 -9 24 1 9 7 13 8 9 2 -3 -6 0 -11 8 -11 18 0 19 9 3 27 -7 8
-2 6 11 -5 14 -11 21 -14 17 -7 -4 6 -2 12 4 12 6 0 8 5 5 10 -4 6 -1 17 5 25
10 12 10 15 0 15 -7 0 -3 9 10 20 15 13 18 20 9 20 -10 1 -8 5 5 15 14 11 16
15 5 15 -10 0 -11 2 -2 8 7 4 14 18 16 30 2 12 7 25 12 29 4 5 6 3 2 -2 -8
-14 30 -38 38 -25 4 6 1 9 -5 8 -14 -3 -22 29 -10 37 5 3 12 0 16 -6 5 -8 3
-9 -6 -4 -9 5 -11 4 -6 -4 4 -6 12 -9 17 -5 5 3 6 10 3 16 -5 7 0 9 14 6 14
-4 19 -2 16 7 -7 18 26 28 45 13 13 -10 12 -8 -1 8 -10 11 -18 25 -18 30 0 5
5 2 10 -6 9 -13 11 -13 21 0 9 13 10 12 5 -3 -4 -14 -2 -16 12 -9 9 5 25 8 34
7 10 -2 16 2 15 8 -1 7 4 11 11 9 8 -1 11 2 6 9 -4 8 1 9 17 5 20 -6 21 -5 6
4 -13 8 -15 16 -7 29 5 10 6 21 3 25 -3 3 -1 6 6 6 14 0 11 -31 -4 -43 -6 -5
-4 -7 5 -4 8 2 16 9 16 15 1 7 2 17 3 22 0 6 6 10 12 10 5 0 8 -4 5 -9 -3 -5
0 -11 7 -14 10 -4 13 2 9 19 -3 20 -9 23 -26 19 -13 -4 -9 1 12 14 17 11 32
25 32 31 0 7 8 7 23 -1 20 -11 21 -11 8 5 -12 14 -12 19 -1 29 10 10 11 9 5
-2 -6 -11 -2 -10 15 2 23 16 41 65 19 52 -6 -4 -8 -13 -5 -20 2 -7 -1 -16 -9
-19 -13 -5 -30 22 -20 32 3 3 5 -1 5 -9 0 -8 6 -4 16 9 8 12 19 20 24 17 5 -3
12 0 16 6 4 8 3 9 -4 5 -7 -4 -12 -2 -12 3 0 6 7 12 15 12 31 3 35 4 35 12 0
4 0 9 0 12 0 3 -9 1 -19 -5 -14 -7 -22 -7 -27 2 -4 7 -3 8 4 4 7 -4 12 -2 12
5 0 7 3 9 7 6 3 -4 13 -1 21 6 13 9 14 9 8 0 -4 -7 -2 -13 3 -13 10 0 15 14
12 32 0 4 6 5 14 2 8 -4 15 -2 15 3 0 5 10 10 22 10 16 2 19 0 10 -6 -11 -7
-10 -10 3 -14 9 -4 13 -3 10 3 -3 6 -1 10 5 10 6 0 9 4 6 8 -3 5 5 8 17 8 12
-1 21 4 20 11 -2 7 6 10 18 8 15 -3 23 2 26 16 4 13 8 17 13 9 5 -7 11 -6 21
6 12 16 12 17 -1 9 -9 -5 -12 -5 -7 1 9 9 13 10 43 13 10 1 14 7 10 16 -3 9 0
15 10 15 8 0 12 5 9 10 -3 6 1 13 9 16 9 3 13 11 9 18 -4 6 1 5 10 -3 15 -12
17 -12 11 3 -4 9 -1 16 6 16 7 0 10 7 6 16 -3 8 -2 12 4 9 9 -6 15 22 11 53
-1 8 2 19 7 25 5 7 8 31 7 54 0 24 3 39 9 36 5 -4 7 3 4 15 -4 12 -3 20 2 17
7 -4 20 23 24 50 0 6 4 10 7 10 13 0 38 28 33 36 -3 5 0 9 5 9 6 0 11 -5 11
-12 0 -6 3 -8 6 -5 4 4 1 15 -7 24 -7 10 -10 15 -5 11 5 -4 21 8 36 27 15 19
30 32 34 30 3 -3 4 -2 1 2 -3 3 0 13 6 22 6 9 -2 1 -19 -17 -22 -25 -32 -30
-38 -20 -4 7 -3 10 1 5 5 -4 16 5 26 20 14 21 16 30 7 43 -10 12 -10 13 2 3
20 -19 29 -16 23 7 -3 11 -9 18 -12 15 -4 -2 -8 2 -8 9 0 8 7 13 16 11 9 -1
15 -10 13 -21 -2 -15 -1 -16 7 -5 5 8 7 20 4 28 -3 8 0 13 7 11 14 -3 21 20
23 74 1 21 6 38 11 38 4 0 6 7 2 15 -3 8 -1 15 4 15 6 0 10 7 10 17 0 9 3 13
7 10 3 -4 11 3 18 16 6 12 18 21 25 19 11 -3 11 0 1 12 -11 13 -9 15 9 11 13
-2 20 -2 17 2 -4 3 0 15 8 27 18 25 19 40 3 30 -10 -6 -10 -5 -1 7 12 15 13
18 13 50 0 11 4 18 9 15 5 -3 9 0 8 7 -1 45 4 77 13 72 6 -3 10 -1 10 4 0 6
-6 11 -12 11 -10 0 -10 2 0 9 8 4 14 12 14 17 -1 5 9 14 21 21 12 7 16 12 10
13 -7 0 -13 5 -13 10 0 7 8 7 23 -1 l22 -12 -20 23 c-11 13 -14 20 -7 16 14
-9 52 19 52 38 0 6 -4 5 -9 -2 -7 -11 -9 -11 -14 2 -4 9 -3 15 1 15 27 -4 32
2 21 24 -12 21 -11 21 6 7 17 -14 18 -14 5 9 -11 21 -10 23 3 18 11 -4 14 0
12 19 -1 13 2 24 7 24 5 0 6 6 2 13 -4 6 3 3 16 -8 l23 -20 -19 29 -18 29 24
-13 c19 -9 22 -9 13 0 -8 9 -6 17 8 31 11 11 17 25 12 32 -4 7 2 5 12 -3 17
-14 18 -14 5 9 -11 22 -10 23 5 17 16 -6 16 -4 4 11 -12 15 -12 16 3 10 12 -4
15 -2 11 8 -3 8 -10 12 -16 8 -6 -3 -7 -1 -3 6 6 9 11 9 21 1 11 -9 12 -7 8
11 -4 15 -2 20 5 15 6 -3 14 -1 18 5 4 8 3 9 -4 5 -7 -4 -12 -2 -12 4 0 6 -4
9 -9 5 -6 -3 -8 4 -6 17 3 12 12 26 20 31 10 5 13 13 7 20 -9 13 -8 19 3 54 4
13 12 23 19 23 6 1 0 7 -14 15 -20 11 -21 14 -7 15 10 0 15 5 12 10 -3 6 1 13
10 16 13 5 13 9 3 22 -11 13 -11 14 1 7 11 -6 13 -4 8 8 -4 12 -1 15 14 12 17
-4 19 -2 9 11 -10 11 -9 18 4 33 12 13 14 21 6 26 -5 3 -8 11 -5 16 4 5 1 9
-4 9 -6 0 -10 6 -9 13 2 6 -4 11 -12 9 -11 -2 -10 1 3 12 12 9 15 16 7 21 -8
5 -5 11 7 21 10 7 15 14 11 14 -4 0 4 12 17 26 21 22 23 30 13 42 -10 13 -10
14 0 8 6 -4 12 -2 12 3 0 6 -6 11 -12 11 -10 0 -10 2 -1 8 7 5 10 21 7 41 -4
24 -2 31 6 26 7 -4 4 7 -5 24 -10 20 -20 29 -28 24 -7 -4 -6 1 2 11 12 15 13
19 1 26 -12 7 -11 11 1 26 8 10 9 15 3 11 -16 -9 -24 49 -10 64 8 9 8 10 0 6
-7 -4 -14 0 -17 8 -4 9 -1 12 7 9 7 -3 13 2 13 10 0 8 -5 12 -10 9 -6 -4 -7
-1 -2 7 4 7 2 16 -6 21 -11 7 -11 9 -1 9 7 0 11 4 7 9 -3 5 0 13 6 17 8 5 9 3
4 -6 -5 -9 -4 -11 4 -6 8 6 9 12 2 20 -6 7 -9 22 -6 34 2 12 -2 25 -8 29 -7 5
-13 16 -14 26 -1 34 -3 38 -15 32 -7 -4 -6 -1 3 7 9 7 15 21 13 31 -2 15 0 16
13 5 15 -12 15 -10 3 12 -13 24 -12 24 5 10 17 -14 17 -13 11 10 -4 14 -4 21
1 15 4 -5 14 -11 22 -13 12 -3 12 -1 0 14 -8 10 -9 15 -2 11 14 -9 45 32 36
46 -3 6 -1 7 5 3 6 -3 16 3 22 14 6 11 17 20 25 20 8 0 15 5 15 11 0 5 -4 8
-8 5 -5 -3 -9 1 -9 8 0 8 9 13 22 12 14 -2 21 3 22 16 1 11 -3 16 -10 12 -7
-3 0 5 15 18 19 16 25 27 18 38 -5 8 -6 19 -2 25 9 14 9 115 0 115 -4 0 -5 9
-3 20 2 11 -3 27 -11 35 -9 8 -11 15 -5 15 16 0 14 60 -1 60 -7 0 -5 5 5 11
13 8 15 14 7 30 -6 10 -7 19 -3 19 15 0 8 50 -7 51 -9 0 -11 2 -3 5 14 6 -3
54 -19 54 -5 0 -7 4 -3 9 3 5 -2 16 -10 24 -19 19 -19 21 1 63 9 19 21 31 26
28 6 -4 8 1 4 14 -4 11 -2 23 4 27 15 9 13 38 -2 29 -10 -5 -10 -4 -1 6 9 10
9 16 0 26 -33 37 -37 44 -27 44 7 0 8 6 1 17 -6 12 -5 21 7 31 13 10 13 12 2
7 -8 -4 -4 3 10 14 23 19 23 21 5 21 -16 0 -17 2 -5 9 8 6 18 7 24 4 5 -3 6
-1 2 6 -4 6 -11 9 -16 6 -4 -3 -10 2 -13 10 -4 8 -1 13 6 11 7 -1 9 -1 4 1 -4
3 -5 9 -2 13 3 5 0 12 -6 16 -8 4 -9 3 -5 -4 4 -7 3 -12 -3 -12 -10 0 -27 38
-23 53 1 4 -1 6 -5 6 -5 -1 -15 -1 -23 0 -13 1 -13 2 0 11 11 7 11 10 2 10 -7
0 -11 4 -8 9 4 5 0 11 -6 14 -10 3 -10 7 1 20 7 10 10 17 6 17 -4 0 -2 7 5 15
10 12 8 16 -11 24 l-24 10 25 1 c23 1 23 2 5 10 -11 5 -14 9 -7 9 18 1 15 26
-5 42 -15 11 -16 11 -5 -1 6 -8 12 -18 12 -24 0 -5 -6 -1 -14 9 -15 20 -11 46
6 42 6 -1 12 6 13 15 3 16 1 16 -20 2 -22 -14 -22 -14 -17 12 3 16 1 25 -5 21
-10 -7 -12 -1 -16 53 -1 19 -6 41 -11 49 -5 8 2 6 19 -5 28 -18 28 -18 16 4
-10 19 -9 21 5 15 12 -4 15 -3 10 5 -4 7 -1 12 9 12 9 0 13 5 10 10 -4 6 -12
8 -18 4 -7 -3 -4 1 5 9 10 8 15 17 11 20 -3 4 0 7 8 8 8 0 6 4 -6 9 -17 7 -17
9 -2 9 9 1 17 5 17 11 0 5 -6 8 -12 6 -7 -1 -10 -1 -5 1 4 3 7 13 7 23 0 10 5
22 10 25 6 3 10 12 9 18 0 8 -2 8 -6 -1 -4 -10 -9 -9 -20 5 -13 16 -13 16 -2
-7 8 -18 8 -22 0 -14 -14 13 -24 57 -10 49 5 -4 9 -1 9 4 0 6 -4 11 -10 11 -5
0 -6 7 -3 17 4 9 2 14 -3 11 -5 -3 -16 1 -24 10 -13 14 -12 15 3 9 18 -7 33 8
17 18 -6 4 -7 11 -4 17 4 7 2 8 -4 4 -7 -4 -12 -2 -12 3 0 6 5 11 10 11 6 0
10 4 10 10 0 5 -6 7 -12 5 -7 -3 -20 0 -28 5 -13 9 -13 11 0 19 8 5 18 7 22 5
4 -3 8 0 8 6 0 6 5 8 11 4 7 -4 7 1 -1 15 -11 22 -35 24 -35 3 0 -5 -3 -13 -7
-17 -3 -4 -5 1 -3 12 2 10 4 22 4 27 1 4 12 6 25 4 24 -5 24 -5 8 29 -9 18
-19 33 -23 33 -13 0 -19 33 -8 46 14 17 -2 19 -18 3 -9 -9 -11 -7 -8 7 1 11 7
18 13 17 12 -3 10 23 -3 34 -4 4 -5 2 0 -5 6 -11 3 -12 -14 -3 -11 7 -21 14
-21 17 0 3 4 3 9 0 5 -4 16 -3 25 0 11 4 13 11 6 29 -6 16 -6 27 2 31 7 5 8 3
3 -6 -5 -9 -4 -11 3 -6 8 5 5 18 -9 42 -11 20 -14 32 -8 28 8 -5 9 -3 5 5 -5
7 -14 10 -22 7 -8 -3 -13 -2 -13 2 3 19 -2 33 -10 28 -5 -3 -11 1 -15 9 -3 8
-12 15 -20 15 -8 0 -17 13 -21 30 -4 17 -11 30 -16 30 -6 0 -7 -5 -3 -12 4 -7
3 -8 -5 -4 -9 6 -9 11 1 24 10 12 10 14 1 8 -8 -4 -13 -1 -13 9 0 9 -4 14 -8
11 -4 -2 -14 0 -22 6 -12 8 -12 9 2 4 10 -3 20 -1 23 4 4 6 -4 10 -17 11 -22
0 -22 1 -3 9 11 5 14 9 7 9 -17 1 -42 26 -42 42 0 6 -9 20 -21 29 -11 10 -21
27 -22 38 0 12 -5 18 -9 16 -5 -3 -6 -10 -3 -15 3 -5 -1 -6 -10 -2 -13 5 -14
7 -3 14 11 7 11 12 0 30 -8 11 -9 18 -3 14 6 -3 11 -1 11 4 0 6 -4 11 -9 11
-6 0 -8 9 -6 19 2 11 -5 30 -16 42 -20 24 -25 34 -10 25 5 -4 7 3 4 14 -3 11
-10 20 -15 20 -6 0 -4 8 3 17 12 14 12 16 0 8 -11 -6 -13 -4 -8 8 4 12 2 14
-11 10 -15 -6 -16 -5 -2 12 9 11 10 16 3 11 -8 -4 -13 -2 -13 5 0 16 -47 58
-57 50 -4 -3 -2 1 4 9 8 11 8 18 -2 27 -7 6 -17 9 -21 5 -5 -4 -2 1 5 11 12
15 12 17 -3 11 -12 -5 -15 -2 -9 12 5 13 3 15 -8 9 -11 -6 -12 -5 -1 6 14 15
16 33 3 25 -5 -3 -11 3 -14 13 -4 15 -1 18 12 13 14 -5 15 -4 1 14 -8 10 -19
22 -25 26 -6 5 -6 8 1 8 6 0 11 7 11 15 0 8 -6 15 -13 15 -7 0 -16 5 -20 12
-4 7 -3 8 4 4 8 -5 10 -2 6 8 -3 9 -14 16 -23 16 -14 0 -14 2 -1 10 11 7 11
10 2 10 -7 0 -10 5 -7 10 3 6 0 10 -8 10 -7 0 -19 11 -25 25 -6 14 -16 25 -21
25 -5 0 -8 12 -6 26 1 15 -3 28 -12 31 -11 4 -11 8 -1 21 11 13 11 14 -2 7 -9
-5 -7 0 4 14 20 22 20 22 0 15 -17 -7 -17 -6 -5 9 11 14 11 17 0 17 -12 0 -12
2 0 9 11 7 9 10 -9 16 -16 5 -19 10 -11 18 17 17 13 27 -8 27 -11 0 -23 5 -27
12 -5 7 -3 8 6 3 8 -5 11 -3 8 6 -3 8 -12 13 -19 11 -8 -2 -6 5 6 19 l20 22
-35 -17 c-24 -12 -30 -13 -17 -2 14 10 15 15 5 19 -10 4 -10 6 0 6 14 1 17 41
3 41 -5 0 -11 7 -14 14 -4 10 -1 13 9 9 7 -3 14 0 14 6 0 6 -7 11 -15 11 -8 0
-15 5 -15 11 0 5 4 7 10 4 6 -3 7 1 4 9 -3 9 -11 13 -16 10 -6 -4 -9 -1 -6 7
3 8 -2 20 -11 27 -14 10 -14 11 4 6 13 -4 9 2 -10 15 -16 11 -27 21 -23 21 4
0 -4 11 -18 25 -14 14 -29 25 -34 25 -6 0 -10 7 -10 16 0 8 -4 13 -9 9 -6 -3
-8 4 -6 16 3 15 0 19 -10 16 -7 -3 -16 1 -19 9 -4 10 -2 13 7 8 9 -6 9 -5 0 8
-7 8 -11 17 -8 20 3 2 -1 5 -9 5 -8 0 -12 -8 -9 -21 3 -17 1 -16 -7 3 -8 18
-7 26 2 33 7 4 9 8 4 8 -5 0 -3 7 4 15 11 13 10 14 -2 10 -8 -3 -19 -16 -24
-28 -6 -12 -9 -17 -8 -12 3 19 -16 56 -25 50 -5 -3 -13 -1 -16 5 -4 6 -1 9 7
8 7 -2 12 3 10 11 -1 7 3 20 10 29 8 9 8 13 2 9 -7 -4 -14 0 -17 8 -4 10 -1
12 11 9 9 -3 7 1 -6 8 -12 8 -19 17 -16 21 4 4 0 7 -10 7 -10 0 -14 -5 -10
-12 4 -6 3 -8 -4 -4 -6 3 -9 15 -7 26 2 12 0 18 -5 15 -5 -3 -11 4 -15 15 -3
11 -15 20 -26 20 -10 0 -19 4 -19 8 0 5 -9 19 -20 32 -11 13 -20 19 -20 15 0
-4 -8 -1 -18 8 -10 10 -23 14 -27 10 -5 -5 -3 0 4 9 11 15 10 17 -10 13 -17
-4 -20 -2 -11 7 15 15 16 32 2 23 -13 -8 -13 1 0 25 7 13 7 21 0 25 -6 4 -7
11 -4 17 4 7 0 7 -13 0 -15 -9 -20 -8 -20 3 0 8 4 12 8 9 4 -2 10 0 14 6 4 6
-4 10 -19 10 -14 0 -28 5 -32 12 -5 8 -2 9 11 4 15 -5 16 -4 6 8 -7 8 -19 12
-26 10 -9 -4 -13 2 -11 19 2 20 -1 23 -16 19 -12 -3 -18 0 -16 8 2 7 -3 15
-11 18 -9 3 -11 0 -6 -8 5 -9 4 -11 -4 -6 -8 6 -9 12 -2 20 12 14 -4 36 -27
36 -8 0 -10 5 -6 13 5 7 0 6 -11 -3 -17 -14 -18 -13 -12 2 7 19 -16 42 -35 36
-13 -5 -38 14 -38 28 0 5 5 3 12 -4 15 -15 28 -15 28 -1 0 5 -4 8 -9 4 -5 -3
-12 -1 -16 5 -4 6 -11 8 -16 4 -6 -3 -18 4 -28 15 -10 12 -23 21 -28 21 -5 0
-20 11 -33 25 -12 13 -26 22 -30 20 -4 -2 -5 7 -2 22 3 14 1 24 -4 21 -5 -3
-16 1 -24 10 -13 14 -12 15 3 9 9 -3 19 -1 23 5 4 7 3 8 -4 4 -7 -4 -12 -2
-12 4 0 6 -4 9 -9 6 -5 -3 -12 1 -15 10 -3 9 -11 12 -18 8 -7 -4 -4 3 7 16 11
13 15 21 9 17 -6 -4 -19 2 -29 13 -10 11 -24 16 -33 12 -15 -5 -15 -4 -3 11
12 15 12 17 -3 11 -13 -5 -15 -2 -10 12 4 11 4 16 -1 12 -15 -14 -51 38 -46
66 1 5 -5 6 -14 2 -9 -3 -13 -2 -10 3 3 5 0 13 -6 16 -5 4 -8 13 -6 19 3 7 -1
13 -8 13 -7 0 -11 -6 -8 -13 2 -6 0 -15 -6 -19 -7 -4 -8 1 -4 12 6 16 5 17
-13 3 -18 -14 -18 -14 -4 5 8 11 20 23 25 27 19 15 -10 8 -31 -6 -18 -13 -21
-13 -22 0 -1 8 -3 20 -4 28 -1 8 -8 12 -15 9 -9 -4 -16 3 -20 16 -3 11 -10 21
-15 21 -6 0 -8 7 -4 15 3 9 0 15 -10 15 -8 0 -12 5 -9 10 3 6 -1 10 -9 10 -29
0 -31 1 -38 20 -5 12 -13 17 -23 14 -8 -3 -15 -1 -15 5 0 6 -7 8 -17 4 -11 -4
-14 -3 -9 5 4 7 2 12 -3 12 -6 0 -11 -5 -11 -12 0 -6 -6 -4 -13 7 -9 11 -19
15 -27 10 -9 -5 -11 -4 -6 3 6 11 -6 16 -26 13 -5 0 -8 7 -8 17 0 13 -2 14 -9
3 -7 -10 -9 -11 -13 -1 -2 7 -15 15 -28 17 -28 4 -52 22 -44 34 3 5 -2 6 -10
3 -16 -6 -40 28 -28 41 4 5 1 5 -6 1 -17 -10 -28 24 -11 36 10 7 8 8 -8 3 -17
-5 -23 -2 -23 9 0 9 -7 16 -16 16 -8 0 -12 5 -9 10 3 6 1 10 -6 10 -6 0 -9 8
-7 18 4 13 -2 17 -28 18 -18 1 -40 9 -49 18 -25 25 -29 19 -9 -11 15 -24 15
-26 1 -15 -9 8 -19 22 -22 32 -4 12 -12 17 -22 13 -13 -5 -14 -3 -3 18 9 18 9
21 0 13 -15 -15 -52 -6 -43 10 4 6 0 6 -9 -2 -13 -10 -17 -10 -22 3 -3 9 -11
13 -16 10 -6 -4 -25 8 -42 26 -17 18 -29 26 -26 18 4 -10 -1 -15 -13 -15 -13
0 -15 3 -7 13 8 10 7 13 -4 13 -8 0 -23 8 -34 18 -11 11 -27 18 -36 16 -11 -1
-15 3 -11 12 3 8 1 14 -5 14 -6 0 -13 -6 -15 -12 -3 -8 -6 -5 -6 5 -1 10 -5
15 -11 12 -5 -3 -10 1 -10 9 0 10 -6 13 -17 9 -12 -5 -14 -3 -8 8 6 11 5 12
-6 2 -16 -15 -33 -17 -24 -3 4 6 -5 10 -19 10 -14 0 -26 4 -26 9 0 5 -22 19
-50 32 -27 12 -47 26 -44 31 3 4 -4 8 -15 8 -12 0 -21 5 -21 10 0 6 -7 10 -15
10 -8 0 -15 5 -15 10 0 6 -9 10 -20 10 -12 0 -20 7 -20 18 0 14 -2 15 -10 2
-8 -13 -10 -12 -10 3 0 9 -5 17 -11 17 -5 0 -7 6 -3 13 5 7 0 6 -11 -3 -11 -9
-16 -10 -11 -2 5 8 0 12 -14 12 -12 0 -18 5 -15 10 3 6 -4 10 -17 10 -18 0
-20 2 -8 10 9 6 10 10 3 10 -6 0 -14 -4 -18 -10 -8 -13 -35 -1 -35 16 0 8 -8
14 -17 14 -15 0 -16 -2 -3 -10 8 -5 10 -10 4 -10 -7 0 -19 11 -28 25 -11 16
-22 22 -33 18 -12 -5 -14 -3 -8 8 6 11 5 12 -6 1 -11 -10 -17 -8 -32 10 -10
13 -16 17 -12 11 3 -7 1 -13 -4 -13 -6 0 -11 5 -11 10 0 6 -6 10 -14 10 -8 0
-16 4 -18 10 -1 5 -33 11 -70 12 -52 2 -64 6 -56 16 8 9 7 11 -6 6 -9 -3 -16
-10 -16 -15 0 -6 -6 -4 -14 3 -11 10 -11 16 -2 28 9 13 9 13 -5 3 -12 -10 -18
-10 -29 0 -10 9 -11 9 -6 0 4 -7 2 -13 -3 -13 -6 0 -11 10 -12 23 0 21 -1 21
-9 2 -8 -18 -9 -18 -9 5 -1 20 -3 22 -11 10 -7 -11 -10 -11 -10 -2 0 7 -4 11
-9 7 -5 -3 -12 -1 -16 5 -4 6 -11 7 -17 4 -6 -4 -8 -2 -5 3 4 6 0 14 -9 17
-23 9 -27 7 -18 -7 5 -7 2 -5 -7 4 -11 12 -20 14 -33 7 -16 -9 -17 -7 -12 13
3 13 3 18 0 11 -5 -10 -13 -8 -33 10 -19 17 -22 18 -9 3 16 -20 16 -21 -2 -21
-10 0 -16 4 -14 8 3 4 -4 8 -16 8 -13 0 -19 4 -14 12 5 7 3 8 -7 2 -24 -15
-40 -13 -37 4 2 10 -3 16 -9 14 -7 -1 -13 3 -13 9 0 6 -9 8 -20 4 -12 -4 -20
-2 -20 5 0 6 -5 8 -10 5 -6 -4 -8 -10 -5 -15 3 -4 -3 -14 -12 -21 -14 -12 -16
-12 -8 1 11 18 14 69 5 75 -4 3 -7 -5 -6 -17 0 -12 -4 -23 -11 -25 -7 -3 -10
4 -6 19 5 23 5 23 -10 3 -15 -20 -16 -20 -40 3 -14 13 -31 23 -38 22 -29 -4
-40 0 -33 13 5 8 2 8 -9 -2 -14 -11 -20 -11 -32 -1 -13 11 -14 10 -9 -4 5 -14
3 -15 -19 -7 -22 9 -25 8 -21 -7 4 -11 -2 -8 -16 8 -14 16 -20 19 -16 8 3 -12
1 -15 -10 -11 -7 3 -14 10 -14 15 0 6 -9 8 -20 5 -10 -3 -27 1 -37 9 -17 13
-17 14 2 8 l20 -7 -20 16 c-17 13 -20 13 -23 1 -2 -8 -8 -14 -13 -14 -6 0 -7
5 -4 10 4 6 1 18 -6 26 -10 12 -14 12 -21 2 -6 -11 -10 -11 -17 0 -4 8 -12 14
-17 15 -5 1 -8 7 -6 12 1 6 -5 1 -13 -9 -13 -17 -15 -18 -15 -3 0 9 -5 17 -11
17 -5 0 -7 -5 -3 -12 4 -7 3 -8 -4 -4 -7 4 -12 15 -12 24 0 10 -3 13 -8 7 -9
-12 -44 -16 -36 -4 3 5 -2 9 -11 9 -10 0 -13 -5 -9 -12 4 -7 3 -8 -5 -4 -6 4
-8 12 -5 18 5 7 1 9 -9 5 -10 -4 -17 -1 -17 6 0 8 -4 6 -10 -3 -8 -12 -10 -12
-10 -1 0 8 -7 11 -19 8 -14 -3 -18 -1 -14 9 3 9 -2 14 -17 14 -14 0 -19 4 -14
13 4 6 4 9 -1 5 -4 -4 -16 -3 -26 2 -12 7 -19 6 -22 -3 -3 -6 -6 -3 -6 8 -1
17 -3 17 -11 5 -8 -12 -10 -12 -11 5 l0 20 -9 -20 c-5 -11 -9 -14 -9 -6 -1 11
-4 11 -18 0 -11 -10 -14 -10 -9 -1 4 7 2 12 -4 12 -6 0 -8 6 -4 13 4 7 3 9 -2
4 -5 -5 -10 -13 -10 -18 -1 -5 -2 -12 -3 -15 0 -3 -9 4 -19 17 -15 17 -21 19
-27 9 -5 -8 -4 -11 3 -6 6 3 13 3 16 -2 2 -4 -6 -8 -19 -8 -13 0 -21 4 -19 8
3 4 0 8 -5 8 -6 0 -11 -5 -11 -11 0 -5 -5 -7 -10 -4 -6 4 -18 1 -27 -7 -14
-11 -15 -11 -9 0 7 11 4 11 -14 0 -18 -10 -24 -10 -27 0 -3 6 -13 12 -24 12
-11 0 -19 7 -19 16 0 8 -4 12 -10 9 -5 -3 -10 -1 -10 4 0 6 -5 11 -11 11 -5 0
-7 -6 -3 -12 6 -10 4 -10 -7 -2 -15 12 -54 13 -65 1 -4 -4 -13 1 -21 11 -10
13 -12 13 -8 2 4 -12 -2 -16 -30 -16 -27 0 -35 4 -35 18 0 20 -11 23 -26 8 -7
-7 -11 -6 -11 4 0 8 4 13 8 11 4 -3 10 2 13 11 4 10 2 13 -6 8 -7 -5 -9 0 -6
13 4 14 1 20 -11 20 -35 0 -42 3 -35 16 4 6 4 9 0 5 -5 -4 -19 -3 -32 2 -30
12 -32 2 -1 -10 21 -8 20 -9 -5 -7 -16 1 -28 7 -28 14 0 7 -5 13 -11 13 -5 0
-7 -5 -3 -11 4 -7 -3 -6 -17 2 -13 7 -26 12 -29 12 -3 -1 -4 3 -2 8 1 6 -5 6
-16 0 -14 -7 -25 -6 -40 4 -16 12 -21 12 -25 2 -4 -9 -6 -9 -6 1 -1 6 -12 12
-26 12 -14 0 -25 5 -25 11 0 5 -4 8 -9 5 -4 -3 -17 1 -27 8 -13 10 -23 11 -31
4 -9 -7 -13 -7 -13 1 0 7 -4 9 -10 6 -5 -3 -10 2 -10 12 0 15 -2 16 -11 3 -8
-11 -12 -12 -16 -2 -2 6 -8 10 -13 7 -4 -3 -26 2 -48 9 -31 11 -42 12 -46 3
-2 -7 -5 -4 -5 5 -1 11 -6 15 -16 12 -8 -4 -15 -1 -15 5 0 9 -5 9 -22 0 -18
-10 -20 -9 -15 5 4 9 5 15 4 15 -1 -1 -12 -4 -25 -6z m-548 -91 c3 -5 -1 -9
-9 -9 -8 0 -12 4 -9 9 3 4 7 8 9 8 2 0 6 -4 9 -8z m1151 -91 c3 -5 2 -12 -3
-15 -5 -3 -9 1 -9 9 0 17 3 19 12 6z m925 -245 c0 -2 -7 -7 -16 -10 -8 -3 -12
-2 -9 4 6 10 25 14 25 6z m475 -128 c5 4 5 2 1 -5 -8 -14 -36 -6 -36 9 0 7 5
6 13 -1 8 -6 18 -7 22 -3z m335 -152 c0 -2 -8 -10 -17 -17 -16 -13 -17 -12 -4
4 13 16 21 21 21 13z m-5066 -44 c2 -4 -4 -8 -14 -8 -10 0 -16 4 -14 8 3 4 9
8 14 8 5 0 11 -4 14 -8z m-619 -542 c-3 -5 -12 -10 -18 -10 -7 0 -6 4 3 10 19
12 23 12 15 0z m6913 -25 c-3 -3 -9 2 -12 12 -6 14 -5 15 5 6 7 -7 10 -15 7
-18z m32 4 c0 -5 -4 -9 -8 -9 -5 0 -9 7 -9 15 0 8 4 12 9 9 4 -3 8 -9 8 -15z
m-7133 -124 c0 -8 -4 -12 -9 -9 -5 3 -6 10 -3 15 9 13 12 11 12 -6z m-97 -69
c0 -3 -4 -8 -10 -11 -5 -3 -10 -1 -10 4 0 6 5 11 10 11 6 0 10 -2 10 -4z
m-320 -400 c0 -3 -4 -8 -10 -11 -5 -3 -10 -1 -10 4 0 6 5 11 10 11 6 0 10 -2
10 -4z m8274 -35 c-3 -3 -10 2 -15 12 -6 9 -15 15 -20 12 -5 -4 -6 -11 -3 -17
4 -7 2 -8 -5 -4 -9 6 -9 11 0 22 10 13 14 12 30 -2 11 -10 17 -20 13 -23z
m246 -251 c0 -5 -4 -10 -10 -10 -5 0 -10 5 -10 10 0 6 5 10 10 10 6 0 10 -4
10 -10z m64 -48 c3 -5 -1 -9 -9 -9 -8 0 -12 4 -9 9 3 4 7 8 9 8 2 0 6 -4 9 -8z
m140 -171 c3 -5 -1 -11 -9 -14 -9 -4 -12 -1 -8 9 6 16 10 17 17 5z m-9614
-391 c0 -5 -5 -10 -11 -10 -5 0 -7 5 -4 10 3 6 8 10 11 10 2 0 4 -4 4 -10z
m-13 -35 c0 -8 -4 -12 -9 -9 -4 3 -8 9 -8 15 0 5 4 9 8 9 5 0 9 -7 9 -15z
m10081 -310 c-3 -3 -9 2 -12 12 -6 14 -5 15 5 6 7 -7 10 -15 7 -18z m-10678
-585 c0 -5 -5 -10 -11 -10 -5 0 -7 5 -4 10 3 6 8 10 11 10 2 0 4 -4 4 -10z
m-60 -20 c0 -5 -5 -10 -11 -10 -5 0 -7 5 -4 10 3 6 8 10 11 10 2 0 4 -4 4 -10z
m25 1 c3 -5 2 -12 -3 -15 -5 -3 -9 1 -9 9 0 17 3 19 12 6z m-58 -97 c-3 -3
-12 -4 -19 -1 -8 3 -5 6 6 6 11 1 17 -2 13 -5z m-47 -104 c0 -5 -4 -10 -10
-10 -5 0 -10 5 -10 10 0 6 5 10 10 10 6 0 10 -4 10 -10z m-35 -260 c-3 -5 -12
-10 -18 -10 -7 0 -6 4 3 10 19 12 23 12 15 0z m11513 -455 c-3 -3 -9 2 -12 12
-6 14 -5 15 5 6 7 -7 10 -15 7 -18z m36 -33 c3 -5 0 -9 -7 -10 -7 0 -22 -3
-35 -6 -13 -3 -20 -1 -17 5 4 5 10 7 14 5 4 -3 13 -1 21 5 18 11 18 11 24 1z
m-44 -68 c0 -8 -19 -13 -24 -6 -3 5 1 9 9 9 8 0 15 -2 15 -3z m28 -69 c-3 -3
-9 2 -12 12 -6 14 -5 15 5 6 7 -7 10 -15 7 -18z m26 -24 c4 -5 -3 -7 -14 -4
-23 6 -26 13 -6 13 8 0 17 -4 20 -9z m-13 -84 c-10 -9 -11 -8 -5 6 3 10 9 15
12 12 3 -3 0 -11 -7 -18z m-11742 -450 c0 -9 -2 -8 -6 1 -2 6 -10 9 -15 6 -7
-4 -8 -2 -4 5 9 13 26 5 25 -12z m11872 -1054 c13 -16 12 -17 -3 -4 -17 13
-22 21 -14 21 2 0 10 -8 17 -17z m-11206 -1523 c3 -5 1 -10 -4 -10 -6 0 -11 5
-11 10 0 6 2 10 4 10 3 0 8 -4 11 -10z m103 -231 c-3 -8 -7 -3 -11 10 -4 17
-3 21 5 13 5 -5 8 -16 6 -23z m6 -31 c-3 -5 -10 -5 -16 -2 -7 5 -9 1 -5 -9 4
-11 1 -17 -8 -17 -17 0 -19 12 -5 26 13 13 41 14 34 2z m136 -362 c0 -3 -4 -8
-10 -11 -5 -3 -10 -1 -10 4 0 6 5 11 10 11 6 0 10 -2 10 -4z m10277 -61 c0 -8
-4 -12 -9 -9 -5 3 -6 10 -3 15 9 13 12 11 12 -6z m-74 -100 c-3 -9 -8 -14 -10
-11 -3 3 -2 9 2 15 9 16 15 13 8 -4z m-9867 -177 c4 -7 3 -8 -4 -4 -7 4 -12 2
-12 -5 0 -7 -3 -10 -6 -6 -6 5 3 27 11 27 2 0 7 -5 11 -12z m484 -522 c0 -3
-4 -8 -10 -11 -5 -3 -10 -1 -10 4 0 6 5 11 10 11 6 0 10 -2 10 -4z m8657 -153
c-4 -3 -2 -12 5 -20 6 -7 8 -16 4 -20 -3 -3 -6 -1 -6 6 0 7 -4 10 -9 7 -5 -4
-8 2 -6 11 5 24 4 23 12 23 3 0 3 -3 0 -7z m-8 -64 c1 8 4 11 8 8 11 -11 -28
-46 -44 -40 -13 5 -13 7 1 15 9 5 16 17 17 26 0 14 2 13 9 -3 5 -12 9 -14 9
-6z m-7709 -657 c0 -12 -3 -12 -15 -2 -8 7 -15 13 -15 15 0 1 7 2 15 2 8 0 15
-7 15 -15z m6220 -202 c0 -5 -2 -10 -4 -10 -3 0 -8 5 -11 10 -3 6 -1 10 4 10
6 0 11 -4 11 -10z m-5760 -160 c0 -5 -2 -10 -4 -10 -3 0 -8 5 -11 10 -3 6 -1
10 4 10 6 0 11 -4 11 -10z m480 -240 c0 -5 -2 -10 -4 -10 -3 0 -8 5 -11 10 -3
6 -1 10 4 10 6 0 11 -4 11 -10z m57 -15 c0 -8 -4 -12 -9 -9 -4 3 -8 9 -8 15 0
5 4 9 8 9 5 0 9 -7 9 -15z m63 -5 c0 -5 -5 -10 -11 -10 -5 0 -7 5 -4 10 3 6 8
10 11 10 2 0 4 -4 4 -10z m360 -80 c0 -5 -4 -10 -10 -10 -5 0 -10 5 -10 10 0
6 5 10 10 10 6 0 10 -4 10 -10z m130 -36 c0 -8 -19 -13 -24 -6 -3 5 1 9 9 9 8
0 15 -2 15 -3z m543 -69 c-3 -9 -8 -14 -10 -11 -3 3 -2 9 2 15 9 16 15 13 8
-4z m-153 -3 c0 -5 -7 -9 -15 -9 -8 0 -12 4 -9 9 3 4 9 8 15 8 5 0 9 -4 9 -8z
m918 -90 c7 7 12 9 12 6 0 -3 -6 -11 -14 -17 -12 -10 -17 -8 -26 11 -10 20
-10 21 3 6 10 -13 16 -15 25 -6z m37 9 c3 -5 2 -12 -3 -15 -5 -3 -9 1 -9 9 0
17 3 19 12 6z"/>
<path d="M7800 11650 c-6 -11 -8 -20 -6 -20 3 0 10 9 16 20 6 11 8 20 6 20 -3
0 -10 -9 -16 -20z"/>
<path d="M8055 11590 c3 -5 11 -10 16 -10 6 0 7 5 4 10 -3 6 -11 10 -16 10 -6
0 -7 -4 -4 -10z"/>
<path d="M9913 10665 c0 -8 4 -12 9 -9 5 3 6 10 3 15 -9 13 -12 11 -12 -6z"/>
<path d="M10320 10379 c0 -5 5 -7 10 -4 6 3 10 8 10 11 0 2 -4 4 -10 4 -5 0
-10 -5 -10 -11z"/>
<path d="M2327 10299 c7 -9 10 -19 6 -22 -3 -4 -1 -7 5 -7 17 0 15 16 -5 31
-16 12 -17 12 -6 -2z"/>
<path d="M2275 10240 c-3 -5 -1 -10 4 -10 6 0 11 5 11 10 0 6 -2 10 -4 10 -3
0 -8 -4 -11 -10z"/>
<path d="M2310 10234 c0 -8 5 -12 10 -9 6 4 8 11 5 16 -9 14 -15 11 -15 -7z"/>
<path d="M10600 10046 c0 -2 8 -10 18 -17 15 -13 16 -12 3 4 -13 16 -21 21
-21 13z"/>
<path d="M1990 10000 c-6 -11 -8 -20 -6 -20 3 0 10 9 16 20 6 11 8 20 6 20 -3
0 -10 -9 -16 -20z"/>
<path d="M1530 9626 c0 -8 -6 -16 -12 -19 -10 -4 -10 -7 0 -18 7 -8 12 -9 11
-4 -2 6 2 20 9 33 8 14 9 22 2 22 -5 0 -10 -6 -10 -14z"/>
<path d="M1470 9538 c0 -4 4 -8 9 -8 6 0 12 4 15 8 3 5 -1 9 -9 9 -8 0 -15 -4
-15 -9z"/>
<path d="M11211 9377 c-8 -10 -7 -14 2 -14 8 0 14 6 14 14 0 7 -1 13 -2 13 -2
0 -8 -6 -14 -13z"/>
<path d="M11206 9338 c3 -4 9 -8 15 -8 5 0 9 4 9 8 0 5 -7 9 -15 9 -8 0 -12
-4 -9 -9z"/>
<path d="M1275 9249 c-4 -6 -5 -12 -2 -15 2 -3 7 2 10 11 7 17 1 20 -8 4z"/>
<path d="M11456 8933 c-4 -11 -1 -11 14 -3 24 13 25 17 5 17 -8 0 -16 -6 -19
-14z"/>
<path d="M590 8179 c0 -5 5 -7 10 -4 6 3 10 8 10 11 0 2 -4 4 -10 4 -5 0 -10
-5 -10 -11z"/>
<path d="M555 8110 c3 -5 8 -10 11 -10 2 0 4 5 4 10 0 6 -5 10 -11 10 -5 0 -7
-4 -4 -10z"/>
<path d="M12112 7470 c-9 -15 -9 -21 1 -26 6 -4 9 -4 5 1 -4 4 -3 14 4 22 6 7
9 15 7 18 -3 2 -10 -4 -17 -15z"/>
<path d="M12130 7440 c0 -5 5 -10 11 -10 5 0 7 5 4 10 -3 6 -8 10 -11 10 -2 0
-4 -4 -4 -10z"/>
<path d="M12110 7298 c0 -11 12 -10 30 2 12 7 10 9 -8 7 -12 0 -22 -5 -22 -9z"/>
<path d="M12111 6907 c2 -1 13 -9 24 -17 19 -14 19 -14 6 3 -7 9 -18 17 -24
17 -6 0 -8 -1 -6 -3z"/>
<path d="M12110 6876 c0 -2 8 -10 18 -17 15 -13 16 -12 3 4 -13 16 -21 21 -21
13z"/>
<path d="M12187 6710 c3 -11 9 -22 13 -25 5 -3 6 4 3 15 -3 11 -9 22 -13 25
-5 3 -6 -4 -3 -15z"/>
<path d="M310 6639 c0 -5 5 -7 10 -4 6 3 10 8 10 11 0 2 -4 4 -10 4 -5 0 -10
-5 -10 -11z"/>
<path d="M320 6350 c-8 -5 -12 -12 -9 -15 4 -3 12 1 19 10 14 17 11 19 -10 5z"/>
<path d="M308 5753 c7 -3 16 -2 19 1 4 3 -2 6 -13 5 -11 0 -14 -3 -6 -6z"/>
<path d="M430 5300 c0 -5 5 -10 11 -10 5 0 7 5 4 10 -3 6 -8 10 -11 10 -2 0
-4 -4 -4 -10z"/>
<path d="M740 4591 c0 -6 4 -13 10 -16 6 -3 7 1 4 9 -7 18 -14 21 -14 7z"/>
<path d="M12003 4415 c0 -8 4 -12 9 -9 5 3 6 10 3 15 -9 13 -12 11 -12 -6z"/>
<path d="M11985 4350 c-3 -5 -2 -10 4 -10 5 0 13 5 16 10 3 6 2 10 -4 10 -5 0
-13 -4 -16 -10z"/>
<path d="M947 4143 c5 -12 7 -12 14 -1 7 10 9 10 9 -2 0 -13 1 -13 10 0 6 10
10 11 10 3 0 -7 5 -13 12 -13 23 0 -11 24 -36 26 -17 0 -23 -3 -19 -13z"/>
<path d="M1030 3956 c0 -2 8 -10 18 -17 15 -13 16 -12 3 4 -13 16 -21 21 -21
13z"/>
<path d="M1073 3850 c1 -21 10 -18 13 5 1 8 -2 15 -6 15 -5 0 -8 -9 -7 -20z"/>
<path d="M11410 3180 c0 -5 5 -10 11 -10 5 0 7 5 4 10 -3 6 -8 10 -11 10 -2 0
-4 -4 -4 -10z"/>
<path d="M1995 2740 c-3 -5 -1 -10 4 -10 6 0 11 5 11 10 0 6 -2 10 -4 10 -3 0
-8 -4 -11 -10z"/>
<path d="M11040 2700 c-9 -6 -10 -10 -3 -10 6 0 15 5 18 10 8 12 4 12 -15 0z"/>
<path d="M2108 2573 c7 -3 16 -2 19 1 4 3 -2 6 -13 5 -11 0 -14 -3 -6 -6z"/>
<path d="M10861 2507 c-8 -10 -7 -19 4 -33 15 -19 15 -19 8 0 -5 15 -3 17 8
11 11 -7 11 -5 -1 10 -14 17 -13 18 3 12 11 -4 16 -3 12 3 -8 14 -20 12 -34
-3z"/>
<path d="M2110 2459 c0 -5 5 -7 10 -4 6 3 10 8 10 11 0 2 -4 4 -10 4 -5 0 -10
-5 -10 -11z"/>
<path d="M2170 2400 c0 -5 5 -10 11 -10 5 0 7 -5 3 -12 -4 -7 -3 -8 5 -4 9 6
9 11 0 22 -14 17 -19 18 -19 4z"/>
<path d="M10650 2341 c0 -6 4 -13 10 -16 6 -3 7 1 4 9 -7 18 -14 21 -14 7z"/>
<path d="M9890 1779 c0 -5 5 -7 10 -4 6 3 10 8 10 11 0 2 -4 4 -10 4 -5 0 -10
-5 -10 -11z"/>
<path d="M3327 1511 c6 -7 9 -20 6 -27 -3 -8 -3 -14 0 -14 14 0 14 30 -1 41
-14 11 -15 11 -5 0z"/>
<path d="M3295 1500 c-3 -5 -1 -10 4 -10 6 0 11 5 11 10 0 6 -2 10 -4 10 -3 0
-8 -4 -11 -10z"/>
<path d="M3467 1379 c7 -7 15 -10 18 -7 3 3 -2 9 -12 12 -14 6 -15 5 -6 -5z"/>
<path d="M4627 967 c-3 -8 1 -14 8 -14 7 0 11 6 8 14 -3 7 -6 13 -8 13 -2 0
-5 -6 -8 -13z"/>
<path d="M4749 950 c28 -24 45 -26 37 -4 -3 9 -6 19 -6 22 0 4 -5 0 -11 -8 -8
-11 -12 -12 -16 -2 -2 6 -10 12 -16 12 -7 -1 -1 -10 12 -20z"/>
<path d="M4695 940 c3 -5 8 -10 11 -10 2 0 4 5 4 10 0 6 -5 10 -11 10 -5 0 -7
-4 -4 -10z"/>
<path d="M5810 840 c0 -5 9 -8 20 -7 21 1 18 10 -5 13 -8 1 -15 -2 -15 -6z"/>
</g>
</svg>
